P3
64 64
255
255 255 255 255 255 255 255 255 255 255 255 255 255 255 255 255 255 255 255 255 255 255 255 255 255 255 255 255 255 255 255 255 255 255 255 255 255 255 255 255 255 255 255 255 255 255 255 255 255 255 255 255 255 255 255 255 255 255 255 255 255 255 255 255 255 255 255 255 255 255 255 255 255 255 255 255 255 255 255 255 255 255 255 255 255 255 255 255 255 255 255 255 255 255 255 255 255 255 255 255 255 255 255 255 255 255 255 255 255 255 255 255 255 255 255 255 255 255 255 255 255 255 255 255 255 255 255 255 255 255 255 255 255 255 255 255 255 255 255 255 255 255 255 255 255 255 255 255 255 255 255 255 255 255 255 255 255 255 255 255 255 255 255 255 255 255 255 255 255 255 255 255 255 255 255 255 255 255 255 255 255 255 255 255 255 255 255 255 255 255 255 255
255 255 255 255 255 255 255 255 255 255 255 255 255 255 255 255 255 255 255 255 255 255 255 255 255 255 255 255 255 255 255 255 255 255 255 255 255 255 255 255 255 255 255 255 255 255 255 255 255 255 255 255 255 255 255 255 255 255 255 255 255 255 255 255 255 255 255 255 255 255 255 255 255 255 255 255 255 255 255 255 255 255 255 255 255 255 255 255 255 255 255 255 255 255 255 255 255 255 255 255 255 255 255 255 255 255 255 255 255 255 255 255 255 255 255 255 255 255 255 255 255 255 255 255 255 255 255 255 255 255 255 255 255 255 255 255 255 255 255 255 255 255 255 255 255 255 255 255 255 255 255 255 255 255 255 255 255 255 255 255 255 255 255 255 255 255 255 255 255 255 255 255 255 255 255 255 255 255 255 255 255 255 255 255 255 255 255 255 255 255 255 255
255 255 255 255 255 255 255 255 255 255 255 255 255 255 255 255 255 255 255 255 255 255 255 255 255 255 255 255 255 255 255 255 255 255 255 255 255 255 255 255 255 255 255 255 255 255 255 255 255 255 255 255 255 255 255 255 255 255 255 255 255 255 255 255 255 255 255 255 255 255 255 255 255 255 255 255 255 255 255 255 255 255 255 255 255 255 255 255 255 255 255 255 255 255 255 255 255 255 255 255 255 255 255 255 255 255 255 255 255 255 255 255 255 255 255 255 255 255 255 255 255 255 255 255 255 255 255 255 255 255 255 255 255 255 255 255 255 255 255 255 255 255 255 255 255 255 255 255 255 255 255 255 255 255 255 255 255 255 255 255 255 255 255 255 255 255 255 255 255 255 255 255 255 255 255 255 255 255 255 255 255 255 255 255 255 255 255 255 255 255 255 255
255 255 255 255 255 255 255 255 255 255 255 255 255 255 255 255 255 255 255 255 255 255 255 255 255 255 255 255 255 255 255 255 255 255 255 255 255 255 255 255 255 255 255 255 255 255 255 255 255 255 255 255 255 255 255 255 255 255 255 255 255 255 255 255 255 255 255 255 255 255 255 255 255 255 255 255 255 255 255 255 255 255 255 255 255 255 255 255 255 255 255 255 255 255 255 255 255 255 255 255 255 255 255 255 255 255 255 255 255 255 255 255 255 255 255 255 255 255 255 255 255 255 255 255 255 255 255 255 255 255 255 255 255 255 255 255 255 255 255 255 255 255 255 255 255 255 255 255 255 255 255 255 255 255 255 255 255 255 255 255 255 255 255 255 255 255 255 255 255 255 255 255 255 255 255 255 255 255 255 255 255 255 255 255 255 255 255 255 255 255 255 255
255 255 255 255 255 255 255 255 255 255 255 255 255 255 255 255 255 255 255 255 255 255 255 255 255 255 255 255 255 255 255 255 255 255 255 255 255 255 255 255 255 255 255 255 255 255 255 255 255 255 255 255 255 255 255 255 255 255 255 255 255 255 255 255 255 255 255 255 255 255 255 255 255 255 255 255 255 255 255 255 255 255 255 255 255 255 255 255 255 255 255 255 255 255 255 255 255 255 255 255 255 255 255 255 255 255 255 255 255 255 255 255 255 255 255 255 255 255 255 255 255 255 255 255 255 255 255 255 255 255 255 255 255 255 255 255 255 255 255 255 255 255 255 255 255 255 255 255 255 255 255 255 255 255 255 255 255 255 255 255 255 255 255 255 255 255 255 255 255 255 255 255 255 255 255 255 255 255 255 255 255 255 255 255 255 255 255 255 255 255 255 255
255 255 255 255 255 255 255 255 255 255 255 255 255 255 255 255 255 255 255 255 255 255 255 255 255 255 255 255 255 255 255 255 255 255 255 255 255 255 255 255 255 255 255 255 255 255 255 255 255 255 255 255 255 255 255 255 255 255 255 255 255 255 255 255 255 255 255 255 255 255 255 255 255 255 255 255 255 255 255 255 255 255 255 255 255 255 255 255 255 255 255 255 255 255 255 255 255 255 255 255 255 255 255 255 255 255 255 255 255 255 255 255 255 255 255 255 255 255 255 255 255 255 255 255 255 255 255 255 255 255 255 255 255 255 255 255 255 255 255 255 255 255 255 255 255 255 255 255 255 255 255 255 255 255 255 255 255 255 255 255 255 255 255 255 255 255 255 255 255 255 255 255 255 255 255 255 255 255 255 255 255 255 255 255 255 255 255 255 255 255 255 255
255 255 255 255 255 255 255 255 255 255 255 255 255 255 255 255 255 255 255 255 255 255 255 255 255 255 255 255 255 255 255 255 255 255 255 255 255 255 255 255 255 255 255 255 255 255 255 255 255 255 255 255 255 255 255 255 255 255 255 255 255 255 255 255 255 255 255 255 255 255 255 255 255 255 255 255 255 255 255 255 255 255 255 255 255 255 255 255 255 255 255 255 255 255 255 255 255 255 255 255 255 255 255 255 255 255 255 255 255 255 255 255 255 255 255 255 255 255 255 255 255 255 255 255 255 255 255 255 255 255 255 255 255 255 255 255 255 255 255 255 255 255 255 255 255 255 255 255 255 255 255 255 255 255 255 255 255 255 255 255 255 255 255 255 255 255 255 255 255 255 255 255 255 255 255 255 255 255 255 255 255 255 255 255 255 255 255 255 255 255 255 255
255 255 255 255 255 255 255 255 255 255 255 255 255 255 255 255 255 255 255 255 255 245 240 235 245 240 235 245 240 235 245 240 235 245 240 235 245 240 235 245 240 235 245 240 235 245 240 235 245 240 235 245 240 235 245 240 235 245 240 235 245 240 235 245 240 235 245 240 235 245 240 235 245 240 235 245 240 235 245 240 235 245 240 235 139 90 43 139 90 43 139 90 43 139 90 43 139 90 43 245 240 235 245 240 235 245 240 235 245 240 235 245 240 235 245 240 235 245 240 235 245 240 235 245 240 235 245 240 235 245 240 235 245 240 235 245 240 235 245 240 235 245 240 235 245 240 235 245 240 235 245 240 235 245 240 235 245 240 235 245 240 235 245 240 235 245 240 235 245 240 235 245 240 235 255 255 255 255 255 255 255 255 255 255 255 255 255 255 255 255 255 255
255 255 255 255 255 255 255 255 255 255 255 255 255 255 255 255 255 255 255 255 255 245 240 235 245 240 235 245 240 235 245 240 235 245 240 235 245 240 235 245 240 235 245 240 235 245 240 235 245 240 235 245 240 235 245 240 235 245 240 235 245 240 235 245 240 235 245 240 235 245 240 235 245 240 235 245 240 235 245 240 235 245 240 235 139 90 43 139 90 43 139 90 43 139 90 43 139 90 43 245 240 235 245 240 235 245 240 235 245 240 235 245 240 235 245 240 235 245 240 235 245 240 235 245 240 235 245 240 235 245 240 235 245 240 235 245 240 235 245 240 235 245 240 235 245 240 235 245 240 235 245 240 235 245 240 235 245 240 235 245 240 235 245 240 235 245 240 235 245 240 235 245 240 235 255 255 255 255 255 255 255 255 255 255 255 255 255 255 255 255 255 255
255 255 255 255 255 255 255 255 255 255 255 255 255 255 255 255 255 255 255 255 255 245 240 235 245 240 235 245 240 235 245 240 235 245 240 235 245 240 235 245 240 235 245 240 235 245 240 235 245 240 235 245 240 235 245 240 235 245 240 235 245 240 235 245 240 235 245 240 235 245 240 235 245 240 235 245 240 235 245 240 235 245 240 235 139 90 43 139 90 43 139 90 43 139 90 43 139 90 43 245 240 235 245 240 235 245 240 235 245 240 235 245 240 235 245 240 235 245 240 235 245 240 235 245 240 235 245 240 235 245 240 235 245 240 235 245 240 235 245 240 235 245 240 235 245 240 235 245 240 235 245 240 235 245 240 235 245 240 235 245 240 235 245 240 235 245 240 235 245 240 235 245 240 235 255 255 255 255 255 255 255 255 255 255 255 255 255 255 255 255 255 255
255 255 255 255 255 255 255 255 255 255 255 255 255 255 255 255 255 255 255 255 255 245 240 235 245 240 235 245 240 235 245 240 235 245 240 235 245 240 235 245 240 235 245 240 235 245 240 235 245 240 235 245 240 235 245 240 235 245 240 235 245 240 235 245 240 235 245 240 235 245 240 235 245 240 235 245 240 235 245 240 235 245 240 235 139 90 43 139 90 43 139 90 43 139 90 43 139 90 43 245 240 235 245 240 235 245 240 235 245 240 235 245 240 235 245 240 235 245 240 235 245 240 235 245 240 235 245 240 235 245 240 235 245 240 235 245 240 235 245 240 235 245 240 235 245 240 235 245 240 235 245 240 235 245 240 235 245 240 235 245 240 235 245 240 235 245 240 235 245 240 235 245 240 235 255 255 255 255 255 255 255 255 255 255 255 255 255 255 255 255 255 255
255 255 255 255 255 255 255 255 255 255 255 255 255 255 255 255 255 255 255 255 255 245 240 235 245 240 235 245 240 235 245 240 235 245 240 235 245 240 235 245 240 235 245 240 235 245 240 235 245 240 235 245 240 235 245 240 235 245 240 235 245 240 235 245 240 235 245 240 235 245 240 235 245 240 235 245 240 235 245 240 235 245 240 235 139 90 43 139 90 43 139 90 43 139 90 43 139 90 43 245 240 235 245 240 235 245 240 235 245 240 235 245 240 235 245 240 235 245 240 235 245 240 235 245 240 235 245 240 235 245 240 235 245 240 235 245 240 235 245 240 235 245 240 235 245 240 235 245 240 235 245 240 235 245 240 235 245 240 235 245 240 235 245 240 235 245 240 235 245 240 235 245 240 235 255 255 255 255 255 255 255 255 255 255 255 255 255 255 255 255 255 255
255 255 255 255 255 255 255 255 255 255 255 255 255 255 255 255 255 255 255 255 255 245 240 235 245 240 235 245 240 235 245 240 235 245 240 235 245 240 235 245 240 235 245 240 235 245 240 235 245 240 235 245 240 235 245 240 235 245 240 235 245 240 235 245 240 235 245 240 235 245 240 235 245 240 235 245 240 235 245 240 235 245 240 235 139 90 43 139 90 43 139 90 43 139 90 43 139 90 43 245 240 235 245 240 235 245 240 235 245 240 235 245 240 235 245 240 235 245 240 235 245 240 235 245 240 235 245 240 235 245 240 235 245 240 235 245 240 235 245 240 235 245 240 235 245 240 235 245 240 235 245 240 235 245 240 235 245 240 235 245 240 235 245 240 235 245 240 235 245 240 235 245 240 235 255 255 255 255 255 255 255 255 255 255 255 255 255 255 255 255 255 255
255 255 255 255 255 255 255 255 255 255 255 255 255 255 255 255 255 255 255 255 255 245 240 235 245 240 235 245 240 235 245 240 235 245 240 235 245 240 235 245 240 235 245 240 235 245 240 235 245 240 235 245 240 235 245 240 235 245 240 235 245 240 235 245 240 235 245 240 235 245 240 235 245 240 235 245 240 235 245 240 235 245 240 235 139 90 43 139 90 43 139 90 43 139 90 43 139 90 43 245 240 235 245 240 235 245 240 235 245 240 235 245 240 235 245 240 235 245 240 235 245 240 235 245 240 235 245 240 235 245 240 235 245 240 235 245 240 235 245 240 235 245 240 235 245 240 235 245 240 235 245 240 235 245 240 235 245 240 235 245 240 235 245 240 235 245 240 235 245 240 235 245 240 235 255 255 255 255 255 255 255 255 255 255 255 255 255 255 255 255 255 255
255 255 255 255 255 255 255 255 255 255 255 255 255 255 255 255 255 255 255 255 255 245 240 235 245 240 235 245 240 235 245 240 235 245 240 235 245 240 235 245 240 235 245 240 235 245 240 235 245 240 235 245 240 235 245 240 235 245 240 235 245 240 235 245 240 235 245 240 235 245 240 235 245 240 235 245 240 235 245 240 235 245 240 235 139 90 43 139 90 43 139 90 43 139 90 43 139 90 43 245 240 235 245 240 235 245 240 235 245 240 235 245 240 235 245 240 235 245 240 235 245 240 235 245 240 235 245 240 235 245 240 235 245 240 235 245 240 235 245 240 235 245 240 235 245 240 235 245 240 235 245 240 235 245 240 235 245 240 235 245 240 235 245 240 235 245 240 235 245 240 235 245 240 235 255 255 255 255 255 255 255 255 255 255 255 255 255 255 255 255 255 255
255 255 255 255 255 255 255 255 255 255 255 255 255 255 255 255 255 255 255 255 255 245 240 235 245 240 235 245 240 235 245 240 235 245 240 235 245 240 235 245 240 235 245 240 235 245 240 235 245 240 235 245 240 235 245 240 235 245 240 235 245 240 235 245 240 235 245 240 235 245 240 235 245 240 235 245 240 235 245 240 235 245 240 235 139 90 43 139 90 43 139 90 43 139 90 43 139 90 43 245 240 235 245 240 235 245 240 235 245 240 235 245 240 235 245 240 235 245 240 235 245 240 235 245 240 235 245 240 235 245 240 235 245 240 235 245 240 235 245 240 235 245 240 235 245 240 235 245 240 235 245 240 235 245 240 235 245 240 235 245 240 235 245 240 235 245 240 235 245 240 235 245 240 235 255 255 255 255 255 255 255 255 255 255 255 255 255 255 255 255 255 255
255 255 255 255 255 255 255 255 255 255 255 255 255 255 255 255 255 255 255 255 255 245 240 235 245 240 235 245 240 235 245 240 235 245 240 235 245 240 235 245 240 235 245 240 235 245 240 235 245 240 235 245 240 235 245 240 235 245 240 235 245 240 235 245 240 235 245 240 235 245 240 235 245 240 235 245 240 235 245 240 235 245 240 235 139 90 43 139 90 43 139 90 43 139 90 43 139 90 43 245 240 235 245 240 235 245 240 235 245 240 235 245 240 235 245 240 235 245 240 235 245 240 235 245 240 235 245 240 235 245 240 235 245 240 235 245 240 235 245 240 235 245 240 235 245 240 235 245 240 235 245 240 235 245 240 235 245 240 235 245 240 235 245 240 235 245 240 235 245 240 235 245 240 235 255 255 255 255 255 255 255 255 255 255 255 255 255 255 255 255 255 255
255 255 255 255 255 255 255 255 255 255 255 255 255 255 255 255 255 255 255 255 255 245 240 235 245 240 235 245 240 235 245 240 235 245 240 235 245 240 235 245 240 235 245 240 235 245 240 235 245 240 235 245 240 235 245 240 235 245 240 235 245 240 235 245 240 235 245 240 235 245 240 235 245 240 235 245 240 235 245 240 235 245 240 235 139 90 43 139 90 43 139 90 43 139 90 43 139 90 43 245 240 235 245 240 235 245 240 235 245 240 235 245 240 235 245 240 235 245 240 235 245 240 235 245 240 235 245 240 235 245 240 235 245 240 235 245 240 235 245 240 235 245 240 235 245 240 235 245 240 235 245 240 235 245 240 235 245 240 235 245 240 235 245 240 235 245 240 235 245 240 235 245 240 235 255 255 255 255 255 255 255 255 255 255 255 255 255 255 255 255 255 255
255 255 255 255 255 255 255 255 255 255 255 255 255 255 255 255 255 255 255 255 255 245 240 235 245 240 235 245 240 235 245 240 235 245 240 235 245 240 235 245 240 235 245 240 235 245 240 235 245 240 235 245 240 235 245 240 235 245 240 235 245 240 235 245 240 235 245 240 235 245 240 235 245 240 235 245 240 235 245 240 235 245 240 235 139 90 43 139 90 43 139 90 43 139 90 43 139 90 43 245 240 235 245 240 235 245 240 235 245 240 235 245 240 235 245 240 235 245 240 235 245 240 235 245 240 235 245 240 235 245 240 235 245 240 235 245 240 235 245 240 235 245 240 235 245 240 235 245 240 235 245 240 235 245 240 235 245 240 235 245 240 235 245 240 235 245 240 235 245 240 235 245 240 235 255 255 255 255 255 255 255 255 255 255 255 255 255 255 255 255 255 255
255 255 255 255 255 255 255 255 255 255 255 255 255 255 255 255 255 255 255 255 255 245 240 235 245 240 235 245 240 235 245 240 235 245 240 235 245 240 235 245 240 235 245 240 235 245 240 235 245 240 235 245 240 235 245 240 235 245 240 235 245 240 235 245 240 235 245 240 235 245 240 235 245 240 235 245 240 235 245 240 235 245 240 235 139 90 43 139 90 43 139 90 43 139 90 43 139 90 43 245 240 235 245 240 235 245 240 235 245 240 235 245 240 235 245 240 235 245 240 235 245 240 235 245 240 235 245 240 235 245 240 235 245 240 235 245 240 235 245 240 235 245 240 235 245 240 235 245 240 235 245 240 235 245 240 235 245 240 235 245 240 235 245 240 235 245 240 235 245 240 235 245 240 235 255 255 255 255 255 255 255 255 255 255 255 255 255 255 255 255 255 255
255 255 255 255 255 255 255 255 255 255 255 255 255 255 255 255 255 255 255 255 255 139 90 43 139 90 43 139 90 43 139 90 43 139 90 43 139 90 43 139 90 43 139 90 43 139 90 43 139 90 43 139 90 43 139 90 43 139 90 43 139 90 43 139 90 43 139 90 43 139 90 43 139 90 43 139 90 43 139 90 43 139 90 43 139 90 43 139 90 43 139 90 43 139 90 43 139 90 43 139 90 43 139 90 43 139 90 43 139 90 43 139 90 43 139 90 43 139 90 43 139 90 43 139 90 43 139 90 43 139 90 43 139 90 43 139 90 43 139 90 43 139 90 43 139 90 43 139 90 43 139 90 43 139 90 43 139 90 43 139 90 43 139 90 43 139 90 43 139 90 43 139 90 43 255 255 255 255 255 255 255 255 255 255 255 255 255 255 255 255 255 255
255 255 255 255 255 255 255 255 255 255 255 255 255 255 255 255 255 255 255 255 255 245 240 235 245 240 235 245 240 235 245 240 235 245 240 235 245 240 235 245 240 235 245 240 235 245 240 235 245 240 235 245 240 235 245 240 235 245 240 235 245 240 235 245 240 235 245 240 235 245 240 235 245 240 235 245 240 235 245 240 235 245 240 235 139 90 43 139 90 43 139 90 43 139 90 43 139 90 43 245 240 235 245 240 235 245 240 235 245 240 235 245 240 235 245 240 235 245 240 235 245 240 235 245 240 235 245 240 235 245 240 235 245 240 235 245 240 235 245 240 235 245 240 235 245 240 235 245 240 235 245 240 235 245 240 235 245 240 235 245 240 235 245 240 235 245 240 235 245 240 235 245 240 235 255 255 255 255 255 255 255 255 255 255 255 255 255 255 255 255 255 255
255 255 255 255 255 255 255 255 255 255 255 255 255 255 255 255 255 255 255 255 255 245 240 235 245 240 235 245 240 235 245 240 235 245 240 235 245 240 235 245 240 235 245 240 235 245 240 235 245 240 235 245 240 235 245 240 235 245 240 235 245 240 235 245 240 235 245 240 235 245 240 235 245 240 235 245 240 235 245 240 235 245 240 235 139 90 43 139 90 43 139 90 43 139 90 43 139 90 43 245 240 235 245 240 235 245 240 235 245 240 235 245 240 235 245 240 235 245 240 235 245 240 235 245 240 235 245 240 235 245 240 235 245 240 235 245 240 235 245 240 235 245 240 235 245 240 235 245 240 235 245 240 235 245 240 235 245 240 235 245 240 235 245 240 235 245 240 235 245 240 235 245 240 235 255 255 255 255 255 255 255 255 255 255 255 255 255 255 255 255 255 255
255 255 255 255 255 255 255 255 255 255 255 255 255 255 255 255 255 255 255 255 255 245 240 235 245 240 235 245 240 235 245 240 235 245 240 235 245 240 235 245 240 235 245 240 235 245 240 235 245 240 235 245 240 235 245 240 235 245 240 235 245 240 235 245 240 235 245 240 235 245 240 235 245 240 235 245 240 235 245 240 235 245 240 235 139 90 43 139 90 43 139 90 43 139 90 43 139 90 43 245 240 235 245 240 235 245 240 235 245 240 235 245 240 235 245 240 235 245 240 235 245 240 235 245 240 235 245 240 235 245 240 235 245 240 235 245 240 235 245 240 235 245 240 235 245 240 235 245 240 235 245 240 235 245 240 235 245 240 235 245 240 235 245 240 235 245 240 235 245 240 235 245 240 235 255 255 255 255 255 255 255 255 255 255 255 255 255 255 255 255 255 255
255 255 255 255 255 255 255 255 255 255 255 255 255 255 255 255 255 255 255 255 255 245 240 235 245 240 235 245 240 235 245 240 235 245 240 235 245 240 235 245 240 235 245 240 235 245 240 235 245 240 235 245 240 235 245 240 235 245 240 235 245 240 235 245 240 235 245 240 235 245 240 235 245 240 235 245 240 235 245 240 235 245 240 235 139 90 43 139 90 43 139 90 43 139 90 43 139 90 43 245 240 235 245 240 235 245 240 235 245 240 235 245 240 235 245 240 235 245 240 235 245 240 235 245 240 235 245 240 235 245 240 235 245 240 235 245 240 235 245 240 235 245 240 235 245 240 235 245 240 235 245 240 235 245 240 235 245 240 235 245 240 235 245 240 235 245 240 235 245 240 235 245 240 235 255 255 255 255 255 255 255 255 255 255 255 255 255 255 255 255 255 255
255 255 255 255 255 255 255 255 255 255 255 255 255 255 255 255 255 255 255 255 255 245 240 235 245 240 235 245 240 235 245 240 235 245 240 235 245 240 235 245 240 235 245 240 235 245 240 235 245 240 235 245 240 235 245 240 235 245 240 235 245 240 235 245 240 235 245 240 235 245 240 235 245 240 235 245 240 235 245 240 235 245 240 235 139 90 43 139 90 43 139 90 43 139 90 43 139 90 43 245 240 235 245 240 235 245 240 235 245 240 235 245 240 235 245 240 235 245 240 235 245 240 235 245 240 235 245 240 235 245 240 235 245 240 235 245 240 235 245 240 235 245 240 235 245 240 235 245 240 235 245 240 235 245 240 235 245 240 235 245 240 235 245 240 235 245 240 235 245 240 235 245 240 235 255 255 255 255 255 255 255 255 255 255 255 255 255 255 255 255 255 255
255 255 255 255 255 255 255 255 255 255 255 255 255 255 255 255 255 255 255 255 255 245 240 235 245 240 235 245 240 235 245 240 235 245 240 235 245 240 235 245 240 235 245 240 235 245 240 235 245 240 235 245 240 235 245 240 235 245 240 235 245 240 235 245 240 235 245 240 235 245 240 235 245 240 235 245 240 235 245 240 235 245 240 235 139 90 43 139 90 43 139 90 43 139 90 43 139 90 43 245 240 235 245 240 235 245 240 235 245 240 235 245 240 235 245 240 235 245 240 235 245 240 235 245 240 235 245 240 235 245 240 235 245 240 235 245 240 235 245 240 235 245 240 235 245 240 235 245 240 235 245 240 235 245 240 235 245 240 235 245 240 235 245 240 235 245 240 235 245 240 235 245 240 235 255 255 255 255 255 255 255 255 255 255 255 255 255 255 255 255 255 255
255 255 255 255 255 255 255 255 255 255 255 255 255 255 255 255 255 255 255 255 255 245 240 235 245 240 235 245 240 235 245 240 235 245 240 235 245 240 235 245 240 235 245 240 235 245 240 235 245 240 235 245 240 235 245 240 235 245 240 235 245 240 235 245 240 235 245 240 235 245 240 235 245 240 235 245 240 235 245 240 235 245 240 235 139 90 43 139 90 43 139 90 43 139 90 43 139 90 43 245 240 235 245 240 235 245 240 235 245 240 235 245 240 235 245 240 235 245 240 235 245 240 235 245 240 235 245 240 235 245 240 235 245 240 235 245 240 235 245 240 235 245 240 235 245 240 235 245 240 235 245 240 235 245 240 235 245 240 235 245 240 235 245 240 235 245 240 235 245 240 235 245 240 235 255 255 255 255 255 255 255 255 255 255 255 255 255 255 255 255 255 255
255 255 255 255 255 255 255 255 255 255 255 255 255 255 255 255 255 255 255 255 255 245 240 235 245 240 235 245 240 235 245 240 235 245 240 235 245 240 235 245 240 235 245 240 235 245 240 235 245 240 235 245 240 235 245 240 235 245 240 235 245 240 235 245 240 235 245 240 235 245 240 235 245 240 235 245 240 235 245 240 235 245 240 235 139 90 43 139 90 43 139 90 43 139 90 43 139 90 43 245 240 235 245 240 235 245 240 235 245 240 235 245 240 235 245 240 235 245 240 235 245 240 235 245 240 235 245 240 235 245 240 235 245 240 235 245 240 235 245 240 235 245 240 235 245 240 235 245 240 235 245 240 235 245 240 235 245 240 235 245 240 235 245 240 235 245 240 235 245 240 235 245 240 235 255 255 255 255 255 255 255 255 255 255 255 255 255 255 255 255 255 255
255 255 255 255 255 255 255 255 255 255 255 255 255 255 255 255 255 255 255 255 255 245 240 235 245 240 235 245 240 235 245 240 235 245 240 235 245 240 235 245 240 235 245 240 235 245 240 235 245 240 235 245 240 235 245 240 235 245 240 235 245 240 235 245 240 235 245 240 235 245 240 235 245 240 235 245 240 235 245 240 235 245 240 235 139 90 43 139 90 43 139 90 43 139 90 43 139 90 43 245 240 235 245 240 235 245 240 235 245 240 235 245 240 235 245 240 235 245 240 235 245 240 235 245 240 235 245 240 235 245 240 235 245 240 235 245 240 235 245 240 235 245 240 235 245 240 235 245 240 235 245 240 235 245 240 235 245 240 235 245 240 235 245 240 235 245 240 235 245 240 235 245 240 235 255 255 255 255 255 255 255 255 255 255 255 255 255 255 255 255 255 255
255 255 255 255 255 255 255 255 255 255 255 255 255 255 255 255 255 255 255 255 255 245 240 235 245 240 235 245 240 235 245 240 235 245 240 235 245 240 235 245 240 235 245 240 235 245 240 235 245 240 235 245 240 235 245 240 235 245 240 235 245 240 235 245 240 235 245 240 235 245 240 235 245 240 235 245 240 235 245 240 235 245 240 235 139 90 43 139 90 43 139 90 43 139 90 43 139 90 43 245 240 235 245 240 235 245 240 235 245 240 235 245 240 235 245 240 235 245 240 235 245 240 235 245 240 235 245 240 235 245 240 235 245 240 235 245 240 235 245 240 235 245 240 235 245 240 235 245 240 235 245 240 235 245 240 235 245 240 235 245 240 235 245 240 235 245 240 235 245 240 235 245 240 235 255 255 255 255 255 255 255 255 255 255 255 255 255 255 255 255 255 255
255 255 255 255 255 255 255 255 255 255 255 255 255 255 255 255 255 255 255 255 255 245 240 235 245 240 235 245 240 235 245 240 235 245 240 235 245 240 235 245 240 235 245 240 235 245 240 235 245 240 235 245 240 235 245 240 235 245 240 235 245 240 235 245 240 235 245 240 235 245 240 235 245 240 235 245 240 235 245 240 235 245 240 235 139 90 43 139 90 43 139 90 43 139 90 43 139 90 43 245 240 235 245 240 235 245 240 235 245 240 235 245 240 235 245 240 235 245 240 235 245 240 235 245 240 235 245 240 235 245 240 235 245 240 235 245 240 235 245 240 235 245 240 235 245 240 235 245 240 235 245 240 235 245 240 235 245 240 235 245 240 235 245 240 235 245 240 235 245 240 235 245 240 235 255 255 255 255 255 255 255 255 255 255 255 255 255 255 255 255 255 255
255 255 255 255 255 255 255 255 255 255 255 255 255 255 255 255 255 255 255 255 255 245 240 235 245 240 235 245 240 235 245 240 235 245 240 235 245 240 235 245 240 235 245 240 235 245 240 235 245 240 235 245 240 235 245 240 235 245 240 235 245 240 235 245 240 235 245 240 235 245 240 235 245 240 235 245 240 235 245 240 235 245 240 235 139 90 43 139 90 43 139 90 43 139 90 43 139 90 43 245 240 235 245 240 235 245 240 235 245 240 235 245 240 235 245 240 235 245 240 235 245 240 235 245 240 235 245 240 235 245 240 235 245 240 235 245 240 235 245 240 235 245 240 235 245 240 235 245 240 235 245 240 235 245 240 235 245 240 235 245 240 235 245 240 235 245 240 235 245 240 235 245 240 235 255 255 255 255 255 255 255 255 255 255 255 255 255 255 255 255 255 255
255 255 255 255 255 255 255 255 255 255 255 255 255 255 255 255 255 255 255 255 255 245 240 235 245 240 235 245 240 235 245 240 235 245 240 235 245 240 235 245 240 235 245 240 235 245 240 235 245 240 235 245 240 235 245 240 235 245 240 235 245 240 235 245 240 235 245 240 235 245 240 235 245 240 235 245 240 235 245 240 235 245 240 235 139 90 43 139 90 43 139 90 43 139 90 43 139 90 43 245 240 235 245 240 235 245 240 235 245 240 235 245 240 235 245 240 235 245 240 235 245 240 235 245 240 235 245 240 235 245 240 235 245 240 235 245 240 235 245 240 235 245 240 235 245 240 235 245 240 235 245 240 235 245 240 235 245 240 235 245 240 235 245 240 235 245 240 235 245 240 235 245 240 235 255 255 255 255 255 255 255 255 255 255 255 255 255 255 255 255 255 255
255 255 255 255 255 255 255 255 255 255 255 255 255 255 255 255 255 255 255 255 255 245 240 235 245 240 235 245 240 235 245 240 235 245 240 235 245 240 235 245 240 235 245 240 235 245 240 235 245 240 235 245 240 235 245 240 235 245 240 235 245 240 235 245 240 235 245 240 235 245 240 235 245 240 235 245 240 235 245 240 235 245 240 235 139 90 43 139 90 43 139 90 43 139 90 43 139 90 43 245 240 235 245 240 235 245 240 235 245 240 235 245 240 235 245 240 235 245 240 235 245 240 235 245 240 235 245 240 235 245 240 235 245 240 235 245 240 235 245 240 235 245 240 235 245 240 235 245 240 235 245 240 235 245 240 235 245 240 235 245 240 235 245 240 235 245 240 235 245 240 235 245 240 235 255 255 255 255 255 255 255 255 255 255 255 255 255 255 255 255 255 255
255 255 255 255 255 255 255 255 255 255 255 255 255 255 255 255 255 255 255 255 255 245 240 235 245 240 235 245 240 235 245 240 235 245 240 235 245 240 235 245 240 235 245 240 235 245 240 235 245 240 235 245 240 235 245 240 235 245 240 235 245 240 235 245 240 235 245 240 235 245 240 235 245 240 235 245 240 235 245 240 235 245 240 235 139 90 43 139 90 43 139 90 43 139 90 43 139 90 43 245 240 235 245 240 235 245 240 235 245 240 235 245 240 235 245 240 235 245 240 235 245 240 235 245 240 235 245 240 235 245 240 235 245 240 235 245 240 235 245 240 235 245 240 235 245 240 235 245 240 235 245 240 235 245 240 235 245 240 235 245 240 235 245 240 235 245 240 235 245 240 235 245 240 235 255 255 255 255 255 255 255 255 255 255 255 255 255 255 255 255 255 255
255 255 255 255 255 255 255 255 255 255 255 255 255 255 255 255 255 255 255 255 255 245 240 235 245 240 235 245 240 235 245 240 235 245 240 235 245 240 235 245 240 235 245 240 235 245 240 235 245 240 235 245 240 235 245 240 235 245 240 235 245 240 235 245 240 235 245 240 235 245 240 235 245 240 235 245 240 235 245 240 235 245 240 235 139 90 43 139 90 43 139 90 43 139 90 43 139 90 43 245 240 235 245 240 235 245 240 235 245 240 235 245 240 235 245 240 235 245 240 235 245 240 235 245 240 235 245 240 235 245 240 235 245 240 235 245 240 235 245 240 235 245 240 235 245 240 235 245 240 235 245 240 235 245 240 235 245 240 235 245 240 235 245 240 235 245 240 235 245 240 235 245 240 235 255 255 255 255 255 255 255 255 255 255 255 255 255 255 255 255 255 255
255 255 255 255 255 255 255 255 255 255 255 255 255 255 255 255 255 255 255 255 255 245 240 235 245 240 235 245 240 235 245 240 235 245 240 235 245 240 235 245 240 235 245 240 235 245 240 235 245 240 235 245 240 235 245 240 235 245 240 235 245 240 235 245 240 235 245 240 235 245 240 235 245 240 235 245 240 235 245 240 235 245 240 235 139 90 43 139 90 43 139 90 43 139 90 43 139 90 43 245 240 235 245 240 235 245 240 235 245 240 235 245 240 235 245 240 235 245 240 235 245 240 235 245 240 235 245 240 235 245 240 235 245 240 235 245 240 235 245 240 235 245 240 235 245 240 235 245 240 235 245 240 235 245 240 235 245 240 235 245 240 235 245 240 235 245 240 235 245 240 235 245 240 235 255 255 255 255 255 255 255 255 255 255 255 255 255 255 255 255 255 255
255 255 255 255 255 255 255 255 255 255 255 255 255 255 255 255 255 255 255 255 255 139 90 43 139 90 43 139 90 43 139 90 43 139 90 43 139 90 43 139 90 43 139 90 43 139 90 43 139 90 43 139 90 43 139 90 43 139 90 43 139 90 43 139 90 43 139 90 43 139 90 43 139 90 43 139 90 43 139 90 43 139 90 43 139 90 43 139 90 43 139 90 43 139 90 43 139 90 43 139 90 43 139 90 43 139 90 43 139 90 43 139 90 43 139 90 43 139 90 43 139 90 43 139 90 43 139 90 43 139 90 43 139 90 43 139 90 43 139 90 43 139 90 43 139 90 43 139 90 43 139 90 43 139 90 43 139 90 43 139 90 43 139 90 43 139 90 43 139 90 43 139 90 43 255 255 255 255 255 255 255 255 255 255 255 255 255 255 255 255 255 255
255 255 255 255 255 255 255 255 255 255 255 255 255 255 255 255 255 255 255 255 255 245 240 235 245 240 235 245 240 235 245 240 235 245 240 235 245 240 235 245 240 235 245 240 235 245 240 235 245 240 235 245 240 235 245 240 235 245 240 235 245 240 235 245 240 235 245 240 235 245 240 235 245 240 235 245 240 235 245 240 235 245 240 235 139 90 43 139 90 43 139 90 43 139 90 43 139 90 43 245 240 235 245 240 235 245 240 235 245 240 235 245 240 235 245 240 235 245 240 235 245 240 235 245 240 235 245 240 235 245 240 235 245 240 235 245 240 235 245 240 235 245 240 235 245 240 235 245 240 235 245 240 235 245 240 235 245 240 235 245 240 235 245 240 235 245 240 235 245 240 235 245 240 235 255 255 255 255 255 255 255 255 255 255 255 255 255 255 255 255 255 255
255 255 255 255 255 255 255 255 255 255 255 255 255 255 255 255 255 255 255 255 255 245 240 235 245 240 235 245 240 235 245 240 235 245 240 235 245 240 235 245 240 235 245 240 235 245 240 235 245 240 235 245 240 235 245 240 235 245 240 235 245 240 235 245 240 235 245 240 235 245 240 235 245 240 235 245 240 235 245 240 235 245 240 235 139 90 43 139 90 43 139 90 43 139 90 43 139 90 43 245 240 235 245 240 235 245 240 235 245 240 235 245 240 235 245 240 235 245 240 235 245 240 235 245 240 235 245 240 235 245 240 235 245 240 235 245 240 235 245 240 235 245 240 235 245 240 235 245 240 235 245 240 235 245 240 235 245 240 235 245 240 235 245 240 235 245 240 235 245 240 235 245 240 235 255 255 255 255 255 255 255 255 255 255 255 255 255 255 255 255 255 255
255 255 255 255 255 255 255 255 255 255 255 255 255 255 255 255 255 255 255 255 255 245 240 235 245 240 235 245 240 235 245 240 235 245 240 235 245 240 235 245 240 235 245 240 235 245 240 235 245 240 235 245 240 235 245 240 235 245 240 235 245 240 235 245 240 235 245 240 235 245 240 235 245 240 235 245 240 235 245 240 235 245 240 235 139 90 43 139 90 43 139 90 43 139 90 43 139 90 43 245 240 235 245 240 235 245 240 235 245 240 235 245 240 235 245 240 235 245 240 235 245 240 235 245 240 235 245 240 235 245 240 235 245 240 235 245 240 235 245 240 235 245 240 235 245 240 235 245 240 235 245 240 235 245 240 235 245 240 235 245 240 235 245 240 235 245 240 235 245 240 235 245 240 235 255 255 255 255 255 255 255 255 255 255 255 255 255 255 255 255 255 255
255 255 255 255 255 255 255 255 255 255 255 255 255 255 255 255 255 255 255 255 255 245 240 235 245 240 235 245 240 235 245 240 235 245 240 235 245 240 235 245 240 235 245 240 235 245 240 235 245 240 235 245 240 235 245 240 235 245 240 235 245 240 235 245 240 235 245 240 235 245 240 235 245 240 235 245 240 235 245 240 235 245 240 235 139 90 43 139 90 43 139 90 43 139 90 43 139 90 43 245 240 235 245 240 235 245 240 235 245 240 235 245 240 235 245 240 235 245 240 235 245 240 235 245 240 235 245 240 235 245 240 235 245 240 235 245 240 235 245 240 235 245 240 235 245 240 235 245 240 235 245 240 235 245 240 235 245 240 235 245 240 235 245 240 235 245 240 235 245 240 235 245 240 235 255 255 255 255 255 255 255 255 255 255 255 255 255 255 255 255 255 255
255 255 255 255 255 255 255 255 255 255 255 255 255 255 255 255 255 255 255 255 255 245 240 235 245 240 235 245 240 235 245 240 235 245 240 235 245 240 235 245 240 235 245 240 235 245 240 235 245 240 235 245 240 235 245 240 235 245 240 235 245 240 235 245 240 235 245 240 235 245 240 235 245 240 235 245 240 235 245 240 235 245 240 235 139 90 43 139 90 43 139 90 43 139 90 43 139 90 43 245 240 235 245 240 235 245 240 235 245 240 235 245 240 235 245 240 235 245 240 235 245 240 235 245 240 235 245 240 235 245 240 235 245 240 235 245 240 235 245 240 235 245 240 235 245 240 235 245 240 235 245 240 235 245 240 235 245 240 235 245 240 235 245 240 235 245 240 235 245 240 235 245 240 235 255 255 255 255 255 255 255 255 255 255 255 255 255 255 255 255 255 255
255 255 255 255 255 255 255 255 255 255 255 255 255 255 255 255 255 255 255 255 255 245 240 235 245 240 235 245 240 235 245 240 235 245 240 235 245 240 235 245 240 235 245 240 235 245 240 235 245 240 235 245 240 235 245 240 235 245 240 235 245 240 235 245 240 235 245 240 235 245 240 235 245 240 235 245 240 235 245 240 235 245 240 235 139 90 43 139 90 43 139 90 43 139 90 43 139 90 43 245 240 235 245 240 235 245 240 235 245 240 235 245 240 235 245 240 235 245 240 235 245 240 235 245 240 235 245 240 235 245 240 235 245 240 235 245 240 235 245 240 235 245 240 235 245 240 235 245 240 235 245 240 235 245 240 235 245 240 235 245 240 235 245 240 235 245 240 235 245 240 235 245 240 235 255 255 255 255 255 255 255 255 255 255 255 255 255 255 255 255 255 255
255 255 255 255 255 255 255 255 255 255 255 255 255 255 255 255 255 255 255 255 255 245 240 235 245 240 235 245 240 235 245 240 235 245 240 235 245 240 235 245 240 235 245 240 235 245 240 235 245 240 235 245 240 235 245 240 235 245 240 235 245 240 235 245 240 235 245 240 235 245 240 235 245 240 235 245 240 235 245 240 235 245 240 235 139 90 43 139 90 43 139 90 43 139 90 43 139 90 43 245 240 235 245 240 235 245 240 235 245 240 235 245 240 235 245 240 235 245 240 235 245 240 235 245 240 235 245 240 235 245 240 235 245 240 235 245 240 235 245 240 235 245 240 235 245 240 235 245 240 235 245 240 235 245 240 235 245 240 235 245 240 235 245 240 235 245 240 235 245 240 235 245 240 235 255 255 255 255 255 255 255 255 255 255 255 255 255 255 255 255 255 255
255 255 255 255 255 255 255 255 255 255 255 255 255 255 255 255 255 255 255 255 255 245 240 235 245 240 235 245 240 235 245 240 235 245 240 235 245 240 235 245 240 235 245 240 235 245 240 235 245 240 235 245 240 235 245 240 235 245 240 235 245 240 235 245 240 235 245 240 235 245 240 235 245 240 235 245 240 235 245 240 235 245 240 235 139 90 43 139 90 43 139 90 43 139 90 43 139 90 43 245 240 235 245 240 235 245 240 235 245 240 235 245 240 235 245 240 235 245 240 235 245 240 235 245 240 235 245 240 235 245 240 235 245 240 235 245 240 235 245 240 235 245 240 235 245 240 235 245 240 235 245 240 235 245 240 235 245 240 235 245 240 235 245 240 235 245 240 235 245 240 235 245 240 235 255 255 255 255 255 255 255 255 255 255 255 255 255 255 255 255 255 255
255 255 255 255 255 255 255 255 255 255 255 255 255 255 255 255 255 255 255 255 255 245 240 235 245 240 235 245 240 235 245 240 235 245 240 235 245 240 235 245 240 235 245 240 235 245 240 235 245 240 235 245 240 235 245 240 235 245 240 235 245 240 235 245 240 235 245 240 235 245 240 235 245 240 235 245 240 235 245 240 235 245 240 235 139 90 43 139 90 43 139 90 43 139 90 43 139 90 43 245 240 235 245 240 235 245 240 235 245 240 235 245 240 235 245 240 235 245 240 235 245 240 235 245 240 235 245 240 235 245 240 235 245 240 235 245 240 235 245 240 235 245 240 235 245 240 235 245 240 235 245 240 235 245 240 235 245 240 235 245 240 235 245 240 235 245 240 235 245 240 235 245 240 235 255 255 255 255 255 255 255 255 255 255 255 255 255 255 255 255 255 255
255 255 255 255 255 255 255 255 255 255 255 255 255 255 255 255 255 255 255 255 255 245 240 235 245 240 235 245 240 235 245 240 235 245 240 235 245 240 235 245 240 235 245 240 235 245 240 235 245 240 235 245 240 235 245 240 235 245 240 235 245 240 235 245 240 235 245 240 235 245 240 235 245 240 235 245 240 235 245 240 235 245 240 235 139 90 43 139 90 43 139 90 43 139 90 43 139 90 43 245 240 235 245 240 235 245 240 235 245 240 235 245 240 235 245 240 235 245 240 235 245 240 235 245 240 235 245 240 235 245 240 235 245 240 235 245 240 235 245 240 235 245 240 235 245 240 235 245 240 235 245 240 235 245 240 235 245 240 235 245 240 235 245 240 235 245 240 235 245 240 235 245 240 235 255 255 255 255 255 255 255 255 255 255 255 255 255 255 255 255 255 255
255 255 255 255 255 255 255 255 255 255 255 255 255 255 255 255 255 255 255 255 255 245 240 235 245 240 235 245 240 235 245 240 235 245 240 235 245 240 235 245 240 235 245 240 235 245 240 235 245 240 235 245 240 235 245 240 235 245 240 235 245 240 235 245 240 235 245 240 235 245 240 235 245 240 235 245 240 235 245 240 235 245 240 235 139 90 43 139 90 43 139 90 43 139 90 43 139 90 43 245 240 235 245 240 235 245 240 235 245 240 235 245 240 235 245 240 235 245 240 235 245 240 235 245 240 235 245 240 235 245 240 235 245 240 235 245 240 235 245 240 235 245 240 235 245 240 235 245 240 235 245 240 235 245 240 235 245 240 235 245 240 235 245 240 235 245 240 235 245 240 235 245 240 235 255 255 255 255 255 255 255 255 255 255 255 255 255 255 255 255 255 255
255 255 255 255 255 255 255 255 255 255 255 255 255 255 255 255 255 255 255 255 255 245 240 235 245 240 235 245 240 235 245 240 235 245 240 235 245 240 235 245 240 235 245 240 235 245 240 235 245 240 235 245 240 235 245 240 235 245 240 235 245 240 235 245 240 235 245 240 235 245 240 235 245 240 235 245 240 235 245 240 235 245 240 235 139 90 43 139 90 43 139 90 43 139 90 43 139 90 43 245 240 235 245 240 235 245 240 235 245 240 235 245 240 235 245 240 235 245 240 235 245 240 235 245 240 235 245 240 235 245 240 235 245 240 235 245 240 235 245 240 235 245 240 235 245 240 235 245 240 235 245 240 235 245 240 235 245 240 235 245 240 235 245 240 235 245 240 235 245 240 235 245 240 235 255 255 255 255 255 255 255 255 255 255 255 255 255 255 255 255 255 255
255 255 255 255 255 255 255 255 255 255 255 255 255 255 255 255 255 255 255 255 255 245 240 235 245 240 235 245 240 235 245 240 235 245 240 235 245 240 235 245 240 235 245 240 235 245 240 235 245 240 235 245 240 235 245 240 235 245 240 235 245 240 235 245 240 235 245 240 235 245 240 235 245 240 235 245 240 235 245 240 235 245 240 235 139 90 43 139 90 43 139 90 43 139 90 43 139 90 43 245 240 235 245 240 235 245 240 235 245 240 235 245 240 235 245 240 235 245 240 235 245 240 235 245 240 235 245 240 235 245 240 235 245 240 235 245 240 235 245 240 235 245 240 235 245 240 235 245 240 235 245 240 235 245 240 235 245 240 235 245 240 235 245 240 235 245 240 235 245 240 235 245 240 235 255 255 255 255 255 255 255 255 255 255 255 255 255 255 255 255 255 255
255 255 255 255 255 255 255 255 255 255 255 255 255 255 255 255 255 255 255 255 255 245 240 235 245 240 235 245 240 235 245 240 235 245 240 235 245 240 235 245 240 235 245 240 235 245 240 235 245 240 235 245 240 235 245 240 235 245 240 235 245 240 235 245 240 235 245 240 235 245 240 235 245 240 235 245 240 235 245 240 235 245 240 235 139 90 43 139 90 43 139 90 43 139 90 43 139 90 43 245 240 235 245 240 235 245 240 235 245 240 235 245 240 235 245 240 235 245 240 235 245 240 235 245 240 235 245 240 235 245 240 235 245 240 235 245 240 235 245 240 235 245 240 235 245 240 235 245 240 235 245 240 235 245 240 235 245 240 235 245 240 235 245 240 235 245 240 235 245 240 235 245 240 235 255 255 255 255 255 255 255 255 255 255 255 255 255 255 255 255 255 255
255 255 255 255 255 255 255 255 255 255 255 255 255 255 255 255 255 255 255 255 255 245 240 235 245 240 235 245 240 235 245 240 235 245 240 235 245 240 235 245 240 235 245 240 235 245 240 235 245 240 235 245 240 235 245 240 235 245 240 235 245 240 235 245 240 235 245 240 235 245 240 235 245 240 235 245 240 235 245 240 235 245 240 235 139 90 43 139 90 43 139 90 43 139 90 43 139 90 43 245 240 235 245 240 235 245 240 235 245 240 235 245 240 235 245 240 235 245 240 235 245 240 235 245 240 235 245 240 235 245 240 235 245 240 235 245 240 235 245 240 235 245 240 235 245 240 235 245 240 235 245 240 235 245 240 235 245 240 235 245 240 235 245 240 235 245 240 235 245 240 235 245 240 235 255 255 255 255 255 255 255 255 255 255 255 255 255 255 255 255 255 255
255 255 255 255 255 255 255 255 255 255 255 255 255 255 255 255 255 255 255 255 255 245 240 235 245 240 235 245 240 235 245 240 235 245 240 235 245 240 235 245 240 235 245 240 235 245 240 235 245 240 235 245 240 235 245 240 235 245 240 235 245 240 235 245 240 235 245 240 235 245 240 235 245 240 235 245 240 235 245 240 235 245 240 235 139 90 43 139 90 43 139 90 43 139 90 43 139 90 43 245 240 235 245 240 235 245 240 235 245 240 235 245 240 235 245 240 235 245 240 235 245 240 235 245 240 235 245 240 235 245 240 235 245 240 235 245 240 235 245 240 235 245 240 235 245 240 235 245 240 235 245 240 235 245 240 235 245 240 235 245 240 235 245 240 235 245 240 235 245 240 235 245 240 235 255 255 255 255 255 255 255 255 255 255 255 255 255 255 255 255 255 255
255 255 255 255 255 255 255 255 255 255 255 255 255 255 255 255 255 255 255 255 255 245 240 235 245 240 235 245 240 235 245 240 235 245 240 235 245 240 235 245 240 235 245 240 235 245 240 235 245 240 235 245 240 235 245 240 235 245 240 235 245 240 235 245 240 235 245 240 235 245 240 235 245 240 235 245 240 235 245 240 235 245 240 235 139 90 43 139 90 43 139 90 43 139 90 43 139 90 43 245 240 235 245 240 235 245 240 235 245 240 235 245 240 235 245 240 235 245 240 235 245 240 235 245 240 235 245 240 235 245 240 235 245 240 235 245 240 235 245 240 235 245 240 235 245 240 235 245 240 235 245 240 235 245 240 235 245 240 235 245 240 235 245 240 235 245 240 235 245 240 235 245 240 235 255 255 255 255 255 255 255 255 255 255 255 255 255 255 255 255 255 255
255 255 255 255 255 255 255 255 255 255 255 255 255 255 255 255 255 255 255 255 255 139 90 43 139 90 43 139 90 43 139 90 43 139 90 43 139 90 43 139 90 43 139 90 43 139 90 43 139 90 43 139 90 43 139 90 43 139 90 43 139 90 43 139 90 43 139 90 43 139 90 43 139 90 43 139 90 43 139 90 43 139 90 43 139 90 43 139 90 43 139 90 43 139 90 43 139 90 43 139 90 43 139 90 43 139 90 43 139 90 43 139 90 43 139 90 43 139 90 43 139 90 43 139 90 43 139 90 43 139 90 43 139 90 43 139 90 43 139 90 43 139 90 43 139 90 43 139 90 43 139 90 43 139 90 43 139 90 43 139 90 43 139 90 43 139 90 43 139 90 43 139 90 43 255 255 255 255 255 255 255 255 255 255 255 255 255 255 255 255 255 255
255 255 255 255 255 255 255 255 255 255 255 255 255 255 255 255 255 255 255 255 255 245 240 235 245 240 235 245 240 235 245 240 235 245 240 235 245 240 235 245 240 235 245 240 235 245 240 235 245 240 235 245 240 235 245 240 235 245 240 235 245 240 235 245 240 235 245 240 235 245 240 235 245 240 235 245 240 235 245 240 235 245 240 235 139 90 43 139 90 43 139 90 43 139 90 43 139 90 43 245 240 235 245 240 235 245 240 235 245 240 235 245 240 235 245 240 235 245 240 235 245 240 235 245 240 235 245 240 235 245 240 235 245 240 235 245 240 235 245 240 235 245 240 235 245 240 235 245 240 235 245 240 235 245 240 235 245 240 235 245 240 235 245 240 235 245 240 235 245 240 235 245 240 235 255 255 255 255 255 255 255 255 255 255 255 255 255 255 255 255 255 255
255 255 255 255 255 255 255 255 255 255 255 255 255 255 255 255 255 255 255 255 255 255 255 255 255 255 255 255 255 255 255 255 255 255 255 255 255 255 255 255 255 255 255 255 255 255 255 255 255 255 255 255 255 255 255 255 255 255 255 255 255 255 255 255 255 255 255 255 255 255 255 255 255 255 255 255 255 255 255 255 255 255 255 255 255 255 255 255 255 255 255 255 255 255 255 255 255 255 255 255 255 255 255 255 255 255 255 255 255 255 255 255 255 255 255 255 255 255 255 255 255 255 255 255 255 255 255 255 255 255 255 255 255 255 255 255 255 255 255 255 255 255 255 255 255 255 255 255 255 255 255 255 255 255 255 255 255 255 255 255 255 255 255 255 255 255 255 255 255 255 255 255 255 255 255 255 255 255 255 255 255 255 255 255 255 255 255 255 255 255 255 255
255 255 255 255 255 255 255 255 255 255 255 255 255 255 255 255 255 255 255 255 255 255 255 255 255 255 255 255 255 255 255 255 255 255 255 255 255 255 255 255 255 255 255 255 255 255 255 255 255 255 255 255 255 255 255 255 255 255 255 255 255 255 255 255 255 255 255 255 255 255 255 255 255 255 255 255 255 255 255 255 255 255 255 255 255 255 255 255 255 255 255 255 255 255 255 255 255 255 255 255 255 255 255 255 255 255 255 255 255 255 255 255 255 255 255 255 255 255 255 255 255 255 255 255 255 255 255 255 255 255 255 255 255 255 255 255 255 255 255 255 255 255 255 255 255 255 255 255 255 255 255 255 255 255 255 255 255 255 255 255 255 255 255 255 255 255 255 255 255 255 255 255 255 255 255 255 255 255 255 255 255 255 255 255 255 255 255 255 255 255 255 255
255 255 255 255 255 255 255 255 255 255 255 255 255 255 255 255 255 255 255 255 255 255 255 255 255 255 255 255 255 255 255 255 255 255 255 255 255 255 255 255 255 255 255 255 255 255 255 255 255 255 255 255 255 255 255 255 255 255 255 255 255 255 255 255 255 255 255 255 255 255 255 255 255 255 255 255 255 255 255 255 255 255 255 255 255 255 255 255 255 255 255 255 255 255 255 255 255 255 255 255 255 255 255 255 255 255 255 255 255 255 255 255 255 255 255 255 255 255 255 255 255 255 255 255 255 255 255 255 255 255 255 255 255 255 255 255 255 255 255 255 255 255 255 255 255 255 255 255 255 255 255 255 255 255 255 255 255 255 255 255 255 255 255 255 255 255 255 255 255 255 255 255 255 255 255 255 255 255 255 255 255 255 255 255 255 255 255 255 255 255 255 255
255 255 255 255 255 255 255 255 255 255 255 255 255 255 255 255 255 255 255 255 255 255 255 255 255 255 255 255 255 255 255 255 255 255 255 255 255 255 255 255 255 255 255 255 255 255 255 255 255 255 255 255 255 255 255 255 255 255 255 255 255 255 255 255 255 255 255 255 255 255 255 255 255 255 255 255 255 255 255 255 255 255 255 255 255 255 255 255 255 255 255 255 255 255 255 255 255 255 255 255 255 255 255 255 255 255 255 255 255 255 255 255 255 255 255 255 255 255 255 255 255 255 255 255 255 255 255 255 255 255 255 255 255 255 255 255 255 255 255 255 255 255 255 255 255 255 255 255 255 255 255 255 255 255 255 255 255 255 255 255 255 255 255 255 255 255 255 255 255 255 255 255 255 255 255 255 255 255 255 255 255 255 255 255 255 255 255 255 255 255 255 255
255 255 255 255 255 255 255 255 255 255 255 255 255 255 255 255 255 255 255 255 255 255 255 255 255 255 255 255 255 255 255 255 255 255 255 255 255 255 255 255 255 255 255 255 255 255 255 255 255 255 255 255 255 255 255 255 255 255 255 255 255 255 255 255 255 255 255 255 255 255 255 255 255 255 255 255 255 255 255 255 255 255 255 255 255 255 255 255 255 255 255 255 255 255 255 255 255 255 255 255 255 255 255 255 255 255 255 255 255 255 255 255 255 255 255 255 255 255 255 255 255 255 255 255 255 255 255 255 255 255 255 255 255 255 255 255 255 255 255 255 255 255 255 255 255 255 255 255 255 255 255 255 255 255 255 255 255 255 255 255 255 255 255 255 255 255 255 255 255 255 255 255 255 255 255 255 255 255 255 255 255 255 255 255 255 255 255 255 255 255 255 255
255 255 255 255 255 255 255 255 255 255 255 255 255 255 255 255 255 255 255 255 255 255 255 255 255 255 255 255 255 255 255 255 255 255 255 255 255 255 255 255 255 255 255 255 255 255 255 255 255 255 255 255 255 255 255 255 255 255 255 255 255 255 255 255 255 255 255 255 255 255 255 255 255 255 255 255 255 255 255 255 255 255 255 255 255 255 255 255 255 255 255 255 255 255 255 255 255 255 255 255 255 255 255 255 255 255 255 255 255 255 255 255 255 255 255 255 255 255 255 255 255 255 255 255 255 255 255 255 255 255 255 255 255 255 255 255 255 255 255 255 255 255 255 255 255 255 255 255 255 255 255 255 255 255 255 255 255 255 255 255 255 255 255 255 255 255 255 255 255 255 255 255 255 255 255 255 255 255 255 255 255 255 255 255 255 255 255 255 255 255 255 255
