P3
64 64
255
250 244 235 250 244 235 250 244 235 250 244 235 250 244 235 250 244 235 250 244 235 250 244 235 250 244 235 250 244 235 250 244 235 250 244 235 250 244 235 250 244 235 250 244 235 250 244 235 250 244 235 250 244 235 250 244 235 250 244 235 250 244 235 250 244 235 250 244 235 250 244 235 250 244 235 250 244 235 250 244 235 250 244 235 250 244 235 250 244 235 250 244 235 250 244 235 250 244 235 250 244 235 250 244 235 250 244 235 250 244 235 250 244 235 250 244 235 250 244 235 250 244 235 250 244 235 250 244 235 250 244 235 250 244 235 250 244 235 250 244 235 250 244 235 250 244 235 250 244 235 250 244 235 250 244 235 250 244 235 250 244 235 250 244 235 250 244 235 250 244 235 250 244 235 250 244 235 250 244 235 250 244 235 250 244 235 250 244 235 250 244 235
250 244 235 250 244 235 250 244 235 250 244 235 250 244 235 250 244 235 250 244 235 250 244 235 250 244 235 250 244 235 250 244 235 250 244 235 250 244 235 250 244 235 250 244 235 250 244 235 250 244 235 250 244 235 250 244 235 250 244 235 250 244 235 250 244 235 250 244 235 250 244 235 250 244 235 250 244 235 250 244 235 250 244 235 250 244 235 250 244 235 250 244 235 250 244 235 250 244 235 250 244 235 250 244 235 250 244 235 250 244 235 250 244 235 250 244 235 250 244 235 250 244 235 250 244 235 250 244 235 250 244 235 250 244 235 250 244 235 250 244 235 250 244 235 250 244 235 250 244 235 250 244 235 250 244 235 250 244 235 250 244 235 250 244 235 250 244 235 250 244 235 250 244 235 250 244 235 250 244 235 250 244 235 250 244 235 250 244 235 250 244 235
250 244 235 250 244 235 250 244 235 250 244 235 250 244 235 250 244 235 250 244 235 250 244 235 250 244 235 250 244 235 250 244 235 250 244 235 250 244 235 250 244 235 250 244 235 250 244 235 250 244 235 250 244 235 250 244 235 250 244 235 250 244 235 250 244 235 250 244 235 250 244 235 250 244 235 250 244 235 250 244 235 250 244 235 250 244 235 250 244 235 250 244 235 250 244 235 250 244 235 250 244 235 250 244 235 250 244 235 250 244 235 250 244 235 250 244 235 250 244 235 250 244 235 250 244 235 250 244 235 250 244 235 250 244 235 250 244 235 250 244 235 250 244 235 250 244 235 250 244 235 250 244 235 250 244 235 250 244 235 250 244 235 250 244 235 250 244 235 250 244 235 250 244 235 250 244 235 250 244 235 250 244 235 250 244 235 250 244 235 250 244 235
250 244 235 250 244 235 250 244 235 250 244 235 250 244 235 250 244 235 250 244 235 250 244 235 250 244 235 250 244 235 250 244 235 250 244 235 250 244 235 250 244 235 250 244 235 250 244 235 250 244 235 250 244 235 250 244 235 250 244 235 250 244 235 250 244 235 250 244 235 250 244 235 250 244 235 250 244 235 250 244 235 250 244 235 250 244 235 250 244 235 250 244 235 250 244 235 250 244 235 250 244 235 250 244 235 250 244 235 250 244 235 250 244 235 250 244 235 250 244 235 250 244 235 250 244 235 250 244 235 250 244 235 250 244 235 250 244 235 250 244 235 250 244 235 250 244 235 250 244 235 250 244 235 250 244 235 250 244 235 250 244 235 250 244 235 250 244 235 250 244 235 250 244 235 250 244 235 250 244 235 250 244 235 250 244 235 250 244 235 250 244 235
250 244 235 250 244 235 250 244 235 250 244 235 250 244 235 250 244 235 250 244 235 250 244 235 250 244 235 250 244 235 250 244 235 250 244 235 250 244 235 250 244 235 250 244 235 250 244 235 250 244 235 250 244 235 250 244 235 250 244 235 250 244 235 250 244 235 250 244 235 250 244 235 250 244 235 250 244 235 250 244 235 250 244 235 250 244 235 250 244 235 250 244 235 250 244 235 250 244 235 250 244 235 250 244 235 250 244 235 250 244 235 250 244 235 250 244 235 250 244 235 250 244 235 250 244 235 250 244 235 250 244 235 250 244 235 250 244 235 250 244 235 250 244 235 250 244 235 250 244 235 250 244 235 250 244 235 250 244 235 250 244 235 250 244 235 250 244 235 250 244 235 250 244 235 250 244 235 250 244 235 250 244 235 250 244 235 250 244 235 250 244 235
250 244 235 250 244 235 250 244 235 250 244 235 250 244 235 250 244 235 250 244 235 250 244 235 250 244 235 250 244 235 250 244 235 250 244 235 250 244 235 250 244 235 250 244 235 250 244 235 250 244 235 250 244 235 250 244 235 250 244 235 250 244 235 250 244 235 250 244 235 250 244 235 250 244 235 250 244 235 250 244 235 250 244 235 250 244 235 250 244 235 250 244 235 250 244 235 250 244 235 250 244 235 250 244 235 250 244 235 250 244 235 250 244 235 250 244 235 250 244 235 250 244 235 250 244 235 250 244 235 250 244 235 250 244 235 250 244 235 250 244 235 250 244 235 250 244 235 250 244 235 250 244 235 250 244 235 250 244 235 250 244 235 250 244 235 250 244 235 250 244 235 250 244 235 250 244 235 250 244 235 250 244 235 250 244 235 250 244 235 250 244 235
250 244 235 250 244 235 250 244 235 250 244 235 250 244 235 250 244 235 250 244 235 250 244 235 250 244 235 250 244 235 250 244 235 250 244 235 250 244 235 250 244 235 250 244 235 250 244 235 250 244 235 250 244 235 250 244 235 250 244 235 250 244 235 250 244 235 250 244 235 250 244 235 250 244 235 250 244 235 250 244 235 250 244 235 250 244 235 250 244 235 250 244 235 250 244 235 250 244 235 250 244 235 250 244 235 250 244 235 250 244 235 250 244 235 250 244 235 250 244 235 250 244 235 250 244 235 250 244 235 250 244 235 250 244 235 250 244 235 250 244 235 250 244 235 250 244 235 250 244 235 250 244 235 250 244 235 250 244 235 250 244 235 250 244 235 250 244 235 250 244 235 250 244 235 250 244 235 250 244 235 250 244 235 250 244 235 250 244 235 250 244 235
250 244 235 250 244 235 250 244 235 250 244 235 250 244 235 250 244 235 250 244 235 250 244 235 250 244 235 250 244 235 250 244 235 250 244 235 250 244 235 250 244 235 250 244 235 250 244 235 250 244 235 250 244 235 250 244 235 250 244 235 250 244 235 250 244 235 250 244 235 250 244 235 250 244 235 250 244 235 250 244 235 250 244 235 250 244 235 250 244 235 250 244 235 250 244 235 250 244 235 250 244 235 250 244 235 250 244 235 250 244 235 250 244 235 250 244 235 250 244 235 250 244 235 250 244 235 250 244 235 250 244 235 250 244 235 250 244 235 250 244 235 250 244 235 250 244 235 250 244 235 250 244 235 250 244 235 250 244 235 250 244 235 250 244 235 250 244 235 250 244 235 250 244 235 250 244 235 250 244 235 250 244 235 250 244 235 250 244 235 250 244 235
250 244 235 250 244 235 250 244 235 250 244 235 250 244 235 250 244 235 250 244 235 250 244 235 250 244 235 250 244 235 250 244 235 250 244 235 250 244 235 250 244 235 250 244 235 250 244 235 250 244 235 250 244 235 250 244 235 250 244 235 250 244 235 250 244 235 250 244 235 250 244 235 250 244 235 250 244 235 250 244 235 250 244 235 250 244 235 250 244 235 250 244 235 250 244 235 250 244 235 250 244 235 250 244 235 250 244 235 250 244 235 250 244 235 250 244 235 250 244 235 250 244 235 250 244 235 250 244 235 250 244 235 250 244 235 250 244 235 250 244 235 250 244 235 250 244 235 250 244 235 250 244 235 250 244 235 250 244 235 250 244 235 250 244 235 250 244 235 250 244 235 250 244 235 250 244 235 250 244 235 250 244 235 250 244 235 250 244 235 250 244 235
250 244 235 250 244 235 250 244 235 250 244 235 250 244 235 250 244 235 250 244 235 250 244 235 250 244 235 250 244 235 250 244 235 250 244 235 250 244 235 250 244 235 250 244 235 250 244 235 250 244 235 250 244 235 250 244 235 250 244 235 250 244 235 250 244 235 250 244 235 250 244 235 250 244 235 250 244 235 250 244 235 250 244 235 250 244 235 250 244 235 250 244 235 250 244 235 250 244 235 250 244 235 250 244 235 250 244 235 250 244 235 250 244 235 250 244 235 250 244 235 250 244 235 250 244 235 250 244 235 250 244 235 250 244 235 250 244 235 250 244 235 250 244 235 250 244 235 250 244 235 250 244 235 250 244 235 250 244 235 250 244 235 250 244 235 250 244 235 250 244 235 250 244 235 250 244 235 250 244 235 250 244 235 250 244 235 250 244 235 250 244 235
250 244 235 250 244 235 250 244 235 250 244 235 250 244 235 250 244 235 250 244 235 250 244 235 250 244 235 250 244 235 250 244 235 250 244 235 250 244 235 250 244 235 250 244 235 250 244 235 250 244 235 250 244 235 250 244 235 250 244 235 250 244 235 250 244 235 250 244 235 250 244 235 250 244 235 250 244 235 250 244 235 250 244 235 250 244 235 250 244 235 250 244 235 250 244 235 250 244 235 250 244 235 250 244 235 250 244 235 250 244 235 250 244 235 250 244 235 250 244 235 250 244 235 250 244 235 250 244 235 250 244 235 250 244 235 250 244 235 250 244 235 250 244 235 250 244 235 250 244 235 250 244 235 250 244 235 250 244 235 250 244 235 250 244 235 250 244 235 250 244 235 250 244 235 250 244 235 250 244 235 250 244 235 250 244 235 250 244 235 250 244 235
250 244 235 250 244 235 250 244 235 250 244 235 250 244 235 250 244 235 250 244 235 250 244 235 250 244 235 250 244 235 250 244 235 250 244 235 250 244 235 250 244 235 250 244 235 250 244 235 250 244 235 250 244 235 250 244 235 250 244 235 250 244 235 250 244 235 250 244 235 250 244 235 250 244 235 250 244 235 250 244 235 250 244 235 250 244 235 250 244 235 250 244 235 250 244 235 250 244 235 250 244 235 250 244 235 250 244 235 250 244 235 250 244 235 250 244 235 250 244 235 250 244 235 250 244 235 250 244 235 250 244 235 250 244 235 250 244 235 250 244 235 250 244 235 250 244 235 250 244 235 250 244 235 250 244 235 250 244 235 250 244 235 250 244 235 250 244 235 250 244 235 250 244 235 250 244 235 250 244 235 250 244 235 250 244 235 250 244 235 250 244 235
250 244 235 250 244 235 250 244 235 250 244 235 250 244 235 250 244 235 250 244 235 250 244 235 250 244 235 250 244 235 250 244 235 250 244 235 250 244 235 250 244 235 250 244 235 250 244 235 250 244 235 250 244 235 250 244 235 250 244 235 250 244 235 250 244 235 250 244 235 250 244 235 250 244 235 250 244 235 250 244 235 250 244 235 250 244 235 250 244 235 250 244 235 250 244 235 250 244 235 250 244 235 250 244 235 250 244 235 250 244 235 250 244 235 250 244 235 250 244 235 250 244 235 250 244 235 250 244 235 250 244 235 250 244 235 250 244 235 250 244 235 250 244 235 250 244 235 250 244 235 250 244 235 250 244 235 250 244 235 250 244 235 250 244 235 250 244 235 250 244 235 250 244 235 250 244 235 250 244 235 250 244 235 250 244 235 250 244 235 250 244 235
250 244 235 250 244 235 250 244 235 250 244 235 250 244 235 250 244 235 250 244 235 250 244 235 250 244 235 250 244 235 250 244 235 250 244 235 250 244 235 250 244 235 250 244 235 250 244 235 250 244 235 250 244 235 250 244 235 250 244 235 250 244 235 250 244 235 250 244 235 250 244 235 250 244 235 250 244 235 250 244 235 250 244 235 250 244 235 250 244 235 250 244 235 250 244 235 250 244 235 250 244 235 250 244 235 250 244 235 250 244 235 250 244 235 250 244 235 250 244 235 250 244 235 250 244 235 250 244 235 250 244 235 250 244 235 250 244 235 250 244 235 250 244 235 250 244 235 250 244 235 250 244 235 250 244 235 250 244 235 250 244 235 250 244 235 250 244 235 250 244 235 250 244 235 250 244 235 250 244 235 250 244 235 250 244 235 250 244 235 250 244 235
250 244 235 250 244 235 250 244 235 250 244 235 250 244 235 250 244 235 250 244 235 250 244 235 250 244 235 250 244 235 250 244 235 250 244 235 250 244 235 250 244 235 250 244 235 250 244 235 250 244 235 250 244 235 250 244 235 250 244 235 250 244 235 250 244 235 250 244 235 250 244 235 250 244 235 250 244 235 250 244 235 250 244 235 250 244 235 250 244 235 250 244 235 250 244 235 250 244 235 250 244 235 250 244 235 250 244 235 250 244 235 250 244 235 250 244 235 250 244 235 250 244 235 250 244 235 250 244 235 250 244 235 250 244 235 250 244 235 250 244 235 250 244 235 250 244 235 250 244 235 250 244 235 250 244 235 250 244 235 250 244 235 250 244 235 250 244 235 250 244 235 250 244 235 250 244 235 250 244 235 250 244 235 250 244 235 250 244 235 250 244 235
250 244 235 250 244 235 250 244 235 250 244 235 250 244 235 250 244 235 250 244 235 250 244 235 250 244 235 250 244 235 250 244 235 250 244 235 250 244 235 250 244 235 250 244 235 250 244 235 250 244 235 250 244 235 250 244 235 250 244 235 250 244 235 250 244 235 250 244 235 250 244 235 250 244 235 250 244 235 250 244 235 250 244 235 250 244 235 250 244 235 250 244 235 250 244 235 250 244 235 250 244 235 250 244 235 250 244 235 250 244 235 250 244 235 250 244 235 250 244 235 250 244 235 250 244 235 250 244 235 250 244 235 250 244 235 250 244 235 250 244 235 250 244 235 250 244 235 250 244 235 250 244 235 250 244 235 250 244 235 250 244 235 250 244 235 250 244 235 250 244 235 250 244 235 250 244 235 250 244 235 250 244 235 250 244 235 250 244 235 250 244 235
250 244 235 250 244 235 250 244 235 250 244 235 250 244 235 250 244 235 250 244 235 250 244 235 250 244 235 250 244 235 250 244 235 250 244 235 250 244 235 250 244 235 250 244 235 250 244 235 250 244 235 250 244 235 250 244 235 250 244 235 250 244 235 250 244 235 250 244 235 250 244 235 250 244 235 250 244 235 250 244 235 250 244 235 250 244 235 250 244 235 250 244 235 250 244 235 250 244 235 250 244 235 250 244 235 250 244 235 250 244 235 250 244 235 250 244 235 250 244 235 250 244 235 250 244 235 250 244 235 250 244 235 250 244 235 250 244 235 250 244 235 250 244 235 250 244 235 250 244 235 250 244 235 250 244 235 250 244 235 250 244 235 250 244 235 250 244 235 250 244 235 250 244 235 250 244 235 250 244 235 250 244 235 250 244 235 250 244 235 250 244 235
250 244 235 250 244 235 250 244 235 250 244 235 250 244 235 250 244 235 250 244 235 250 244 235 250 244 235 250 244 235 250 244 235 250 244 235 250 244 235 250 244 235 250 244 235 250 244 235 250 244 235 250 244 235 250 244 235 250 244 235 250 244 235 250 244 235 250 244 235 250 244 235 250 244 235 250 244 235 250 244 235 250 244 235 250 244 235 250 244 235 250 244 235 250 244 235 250 244 235 250 244 235 250 244 235 250 244 235 250 244 235 250 244 235 250 244 235 250 244 235 250 244 235 250 244 235 250 244 235 250 244 235 250 244 235 250 244 235 250 244 235 250 244 235 250 244 235 250 244 235 250 244 235 250 244 235 250 244 235 250 244 235 250 244 235 250 244 235 250 244 235 250 244 235 250 244 235 250 244 235 250 244 235 250 244 235 250 244 235 250 244 235
250 244 235 250 244 235 250 244 235 250 244 235 250 244 235 250 244 235 250 244 235 250 244 235 250 244 235 250 244 235 250 244 235 250 244 235 250 244 235 250 244 235 250 244 235 250 244 235 250 244 235 250 244 235 250 244 235 250 244 235 250 244 235 250 244 235 250 244 235 250 244 235 250 244 235 250 244 235 250 244 235 250 244 235 250 244 235 250 244 235 250 244 235 250 244 235 250 244 235 250 244 235 250 244 235 250 244 235 250 244 235 250 244 235 250 244 235 250 244 235 250 244 235 250 244 235 250 244 235 250 244 235 250 244 235 250 244 235 250 244 235 250 244 235 250 244 235 250 244 235 250 244 235 250 244 235 250 244 235 250 244 235 250 244 235 250 244 235 250 244 235 250 244 235 250 244 235 250 244 235 250 244 235 250 244 235 250 244 235 250 244 235
250 244 235 250 244 235 250 244 235 250 244 235 250 244 235 250 244 235 250 244 235 250 244 235 250 244 235 250 244 235 250 244 235 250 244 235 250 244 235 250 244 235 250 244 235 250 244 235 250 244 235 250 244 235 250 244 235 250 244 235 250 244 235 250 244 235 250 244 235 250 244 235 250 244 235 250 244 235 250 244 235 250 244 235 250 244 235 250 244 235 250 244 235 250 244 235 250 244 235 250 244 235 250 244 235 250 244 235 250 244 235 250 244 235 250 244 235 250 244 235 250 244 235 250 244 235 250 244 235 250 244 235 250 244 235 250 244 235 250 244 235 250 244 235 250 244 235 250 244 235 250 244 235 250 244 235 250 244 235 250 244 235 250 244 235 250 244 235 250 244 235 250 244 235 250 244 235 250 244 235 250 244 235 250 244 235 250 244 235 250 244 235
250 244 235 250 244 235 250 244 235 250 244 235 250 244 235 250 244 235 250 244 235 250 244 235 250 244 235 250 244 235 250 244 235 250 244 235 250 244 235 250 244 235 250 244 235 250 244 235 250 244 235 250 244 235 250 244 235 250 244 235 250 244 235 250 244 235 250 244 235 250 244 235 250 244 235 250 244 235 250 244 235 250 244 235 250 244 235 250 244 235 250 244 235 250 244 235 250 244 235 250 244 235 250 244 235 250 244 235 250 244 235 250 244 235 250 244 235 250 244 235 250 244 235 250 244 235 250 244 235 250 244 235 250 244 235 250 244 235 250 244 235 250 244 235 250 244 235 250 244 235 250 244 235 250 244 235 250 244 235 250 244 235 250 244 235 250 244 235 250 244 235 250 244 235 250 244 235 250 244 235 250 244 235 250 244 235 250 244 235 250 244 235
250 244 235 250 244 235 250 244 235 250 244 235 250 244 235 250 244 235 250 244 235 250 244 235 250 244 235 250 244 235 250 244 235 250 244 235 250 244 235 250 244 235 250 244 235 250 244 235 250 244 235 250 244 235 250 244 235 250 244 235 250 244 235 250 244 235 250 244 235 250 244 235 250 244 235 250 244 235 250 244 235 250 244 235 250 244 235 250 244 235 250 244 235 250 244 235 250 244 235 250 244 235 250 244 235 250 244 235 250 244 235 250 244 235 250 244 235 250 244 235 250 244 235 250 244 235 250 244 235 250 244 235 250 244 235 250 244 235 250 244 235 250 244 235 250 244 235 250 244 235 250 244 235 250 244 235 250 244 235 250 244 235 250 244 235 250 244 235 250 244 235 250 244 235 250 244 235 250 244 235 250 244 235 250 244 235 250 244 235 250 244 235
250 244 235 250 244 235 250 244 235 250 244 235 250 244 235 250 244 235 250 244 235 250 244 235 250 244 235 250 244 235 250 244 235 250 244 235 250 244 235 250 244 235 250 244 235 250 244 235 250 244 235 250 244 235 250 244 235 250 244 235 250 244 235 250 244 235 250 244 235 250 244 235 250 244 235 250 244 235 250 244 235 250 244 235 250 244 235 250 244 235 250 244 235 250 244 235 250 244 235 250 244 235 250 244 235 250 244 235 250 244 235 250 244 235 250 244 235 250 244 235 250 244 235 250 244 235 250 244 235 250 244 235 250 244 235 250 244 235 250 244 235 250 244 235 250 244 235 250 244 235 250 244 235 250 244 235 250 244 235 250 244 235 250 244 235 250 244 235 250 244 235 250 244 235 250 244 235 250 244 235 250 244 235 250 244 235 250 244 235 250 244 235
250 244 235 250 244 235 250 244 235 250 244 235 250 244 235 250 244 235 250 244 235 250 244 235 250 244 235 250 244 235 250 244 235 250 244 235 250 244 235 250 244 235 250 244 235 250 244 235 250 244 235 250 244 235 250 244 235 250 244 235 250 244 235 250 244 235 250 244 235 250 244 235 250 244 235 250 244 235 250 244 235 250 244 235 250 244 235 250 244 235 250 244 235 250 244 235 250 244 235 250 244 235 250 244 235 250 244 235 250 244 235 250 244 235 250 244 235 250 244 235 250 244 235 250 244 235 250 244 235 250 244 235 250 244 235 250 244 235 250 244 235 250 244 235 250 244 235 250 244 235 250 244 235 250 244 235 250 244 235 250 244 235 250 244 235 250 244 235 250 244 235 250 244 235 250 244 235 250 244 235 250 244 235 250 244 235 250 244 235 250 244 235
250 244 235 250 244 235 250 244 235 250 244 235 250 244 235 250 244 235 250 244 235 250 244 235 250 244 235 250 244 235 250 244 235 250 244 235 250 244 235 250 244 235 250 244 235 250 244 235 250 244 235 250 244 235 250 244 235 250 244 235 250 244 235 250 244 235 250 244 235 250 244 235 250 244 235 250 244 235 250 244 235 250 244 235 250 244 235 250 244 235 250 244 235 250 244 235 250 244 235 250 244 235 250 244 235 250 244 235 250 244 235 250 244 235 250 244 235 250 244 235 250 244 235 250 244 235 250 244 235 250 244 235 250 244 235 250 244 235 250 244 235 250 244 235 250 244 235 250 244 235 250 244 235 250 244 235 250 244 235 250 244 235 250 244 235 250 244 235 250 244 235 250 244 235 250 244 235 250 244 235 250 244 235 250 244 235 250 244 235 250 244 235
250 244 235 250 244 235 250 244 235 250 244 235 250 244 235 250 244 235 250 244 235 250 244 235 250 244 235 209 180 159 209 180 159 209 180 159 209 180 159 209 180 159 209 180 159 209 180 159 209 180 159 209 180 159 209 180 159 209 180 159 209 180 159 209 180 159 209 180 159 209 180 159 209 180 159 209 180 159 209 180 159 209 180 159 209 180 159 209 180 159 209 180 159 209 180 159 236 227 215 236 227 215 236 227 215 236 227 215 236 227 215 236 227 215 236 227 215 236 227 215 236 227 215 236 227 215 236 227 215 236 227 215 236 227 215 236 227 215 236 227 215 236 227 215 236 227 215 236 227 215 236 227 215 236 227 215 236 227 215 236 227 215 236 227 215 236 227 215 250 244 235 250 244 235 250 244 235 250 244 235 250 244 235 250 244 235 250 244 235 250 244 235
250 244 235 250 244 235 250 244 235 250 244 235 250 244 235 250 244 235 250 244 235 250 244 235 250 244 235 209 180 159 209 180 159 209 180 159 209 180 159 209 180 159 209 180 159 209 180 159 209 180 159 209 180 159 209 180 159 209 180 159 209 180 159 209 180 159 209 180 159 209 180 159 209 180 159 209 180 159 209 180 159 209 180 159 209 180 159 209 180 159 209 180 159 209 180 159 236 227 215 236 227 215 236 227 215 236 227 215 236 227 215 236 227 215 236 227 215 236 227 215 236 227 215 236 227 215 236 227 215 236 227 215 236 227 215 236 227 215 236 227 215 236 227 215 236 227 215 236 227 215 236 227 215 236 227 215 236 227 215 236 227 215 236 227 215 236 227 215 250 244 235 250 244 235 250 244 235 250 244 235 250 244 235 250 244 235 250 244 235 250 244 235
250 244 235 250 244 235 250 244 235 250 244 235 250 244 235 250 244 235 250 244 235 250 244 235 250 244 235 209 180 159 209 180 159 209 180 159 209 180 159 209 180 159 209 180 159 209 180 159 209 180 159 209 180 159 209 180 159 209 180 159 209 180 159 209 180 159 209 180 159 209 180 159 209 180 159 209 180 159 209 180 159 209 180 159 209 180 159 209 180 159 209 180 159 209 180 159 236 227 215 236 227 215 236 227 215 236 227 215 236 227 215 236 227 215 236 227 215 236 227 215 236 227 215 236 227 215 236 227 215 236 227 215 236 227 215 236 227 215 236 227 215 236 227 215 236 227 215 236 227 215 236 227 215 236 227 215 236 227 215 236 227 215 236 227 215 236 227 215 250 244 235 250 244 235 250 244 235 250 244 235 250 244 235 250 244 235 250 244 235 250 244 235
250 244 235 250 244 235 250 244 235 250 244 235 250 244 235 250 244 235 250 244 235 250 244 235 250 244 235 209 180 159 209 180 159 209 180 159 209 180 159 209 180 159 209 180 159 209 180 159 209 180 159 209 180 159 209 180 159 209 180 159 209 180 159 209 180 159 209 180 159 209 180 159 209 180 159 209 180 159 209 180 159 209 180 159 209 180 159 209 180 159 209 180 159 209 180 159 236 227 215 236 227 215 236 227 215 236 227 215 236 227 215 236 227 215 236 227 215 236 227 215 236 227 215 236 227 215 236 227 215 236 227 215 236 227 215 236 227 215 236 227 215 236 227 215 236 227 215 236 227 215 236 227 215 236 227 215 236 227 215 236 227 215 236 227 215 236 227 215 250 244 235 250 244 235 250 244 235 250 244 235 250 244 235 250 244 235 250 244 235 250 244 235
250 244 235 250 244 235 250 244 235 250 244 235 250 244 235 250 244 235 250 244 235 250 244 235 250 244 235 209 180 159 209 180 159 209 180 159 209 180 159 209 180 159 209 180 159 209 180 159 209 180 159 209 180 159 209 180 159 209 180 159 209 180 159 209 180 159 209 180 159 209 180 159 209 180 159 209 180 159 209 180 159 209 180 159 209 180 159 209 180 159 209 180 159 209 180 159 236 227 215 236 227 215 236 227 215 236 227 215 236 227 215 236 227 215 236 227 215 236 227 215 236 227 215 236 227 215 236 227 215 236 227 215 236 227 215 236 227 215 236 227 215 236 227 215 236 227 215 236 227 215 236 227 215 236 227 215 236 227 215 236 227 215 236 227 215 236 227 215 250 244 235 250 244 235 250 244 235 250 244 235 250 244 235 250 244 235 250 244 235 250 244 235
250 244 235 250 244 235 250 244 235 250 244 235 250 244 235 250 244 235 250 244 235 250 244 235 250 244 235 209 180 159 209 180 159 209 180 159 209 180 159 209 180 159 209 180 159 209 180 159 209 180 159 209 180 159 209 180 159 209 180 159 209 180 159 209 180 159 209 180 159 209 180 159 209 180 159 209 180 159 209 180 159 209 180 159 209 180 159 209 180 159 209 180 159 209 180 159 236 227 215 236 227 215 236 227 215 236 227 215 236 227 215 236 227 215 236 227 215 236 227 215 236 227 215 236 227 215 236 227 215 236 227 215 236 227 215 236 227 215 236 227 215 236 227 215 236 227 215 236 227 215 236 227 215 236 227 215 236 227 215 236 227 215 236 227 215 236 227 215 250 244 235 250 244 235 250 244 235 250 244 235 250 244 235 250 244 235 250 244 235 250 244 235
250 244 235 250 244 235 250 244 235 250 244 235 250 244 235 250 244 235 250 244 235 250 244 235 250 244 235 209 180 159 209 180 159 209 180 159 209 180 159 209 180 159 209 180 159 209 180 159 209 180 159 209 180 159 209 180 159 209 180 159 209 180 159 209 180 159 209 180 159 209 180 159 209 180 159 209 180 159 209 180 159 209 180 159 209 180 159 209 180 159 209 180 159 209 180 159 236 227 215 236 227 215 236 227 215 236 227 215 236 227 215 236 227 215 236 227 215 236 227 215 236 227 215 236 227 215 236 227 215 236 227 215 236 227 215 236 227 215 236 227 215 236 227 215 236 227 215 236 227 215 236 227 215 236 227 215 236 227 215 236 227 215 236 227 215 236 227 215 250 244 235 250 244 235 250 244 235 250 244 235 250 244 235 250 244 235 250 244 235 250 244 235
250 244 235 250 244 235 250 244 235 250 244 235 250 244 235 250 244 235 250 244 235 250 244 235 250 244 235 209 180 159 209 180 159 209 180 159 209 180 159 209 180 159 209 180 159 209 180 159 209 180 159 209 180 159 209 180 159 209 180 159 209 180 159 209 180 159 209 180 159 209 180 159 209 180 159 209 180 159 209 180 159 209 180 159 209 180 159 209 180 159 209 180 159 209 180 159 236 227 215 236 227 215 236 227 215 236 227 215 236 227 215 236 227 215 236 227 215 236 227 215 236 227 215 236 227 215 236 227 215 236 227 215 236 227 215 236 227 215 236 227 215 236 227 215 236 227 215 236 227 215 236 227 215 236 227 215 236 227 215 236 227 215 236 227 215 236 227 215 250 244 235 250 244 235 250 244 235 250 244 235 250 244 235 250 244 235 250 244 235 250 244 235
250 244 235 250 244 235 250 244 235 250 244 235 250 244 235 250 244 235 250 244 235 250 244 235 250 244 235 209 180 159 209 180 159 209 180 159 209 180 159 209 180 159 209 180 159 209 180 159 209 180 159 209 180 159 209 180 159 209 180 159 209 180 159 209 180 159 209 180 159 209 180 159 209 180 159 209 180 159 209 180 159 209 180 159 209 180 159 209 180 159 209 180 159 209 180 159 236 227 215 236 227 215 236 227 215 236 227 215 236 227 215 236 227 215 236 227 215 236 227 215 236 227 215 236 227 215 236 227 215 236 227 215 236 227 215 236 227 215 236 227 215 236 227 215 236 227 215 236 227 215 236 227 215 236 227 215 236 227 215 236 227 215 236 227 215 236 227 215 250 244 235 250 244 235 250 244 235 250 244 235 250 244 235 250 244 235 250 244 235 250 244 235
250 244 235 250 244 235 250 244 235 250 244 235 250 244 235 250 244 235 250 244 235 250 244 235 250 244 235 209 180 159 209 180 159 209 180 159 209 180 159 209 180 159 209 180 159 209 180 159 209 180 159 209 180 159 209 180 159 209 180 159 209 180 159 209 180 159 209 180 159 209 180 159 209 180 159 209 180 159 209 180 159 209 180 159 209 180 159 209 180 159 209 180 159 209 180 159 236 227 215 236 227 215 236 227 215 236 227 215 236 227 215 236 227 215 236 227 215 236 227 215 236 227 215 236 227 215 236 227 215 236 227 215 236 227 215 236 227 215 236 227 215 236 227 215 236 227 215 236 227 215 236 227 215 236 227 215 236 227 215 236 227 215 236 227 215 236 227 215 250 244 235 250 244 235 250 244 235 250 244 235 250 244 235 250 244 235 250 244 235 250 244 235
250 244 235 250 244 235 250 244 235 250 244 235 250 244 235 250 244 235 250 244 235 250 244 235 250 244 235 160 110 70 160 110 70 160 110 70 160 110 70 160 110 70 160 110 70 160 110 70 160 110 70 160 110 70 160 110 70 160 110 70 160 110 70 160 110 70 160 110 70 160 110 70 160 110 70 160 110 70 160 110 70 160 110 70 160 110 70 160 110 70 160 110 70 160 110 70 160 110 70 160 110 70 160 110 70 160 110 70 160 110 70 160 110 70 160 110 70 160 110 70 160 110 70 160 110 70 160 110 70 160 110 70 160 110 70 160 110 70 160 110 70 160 110 70 160 110 70 160 110 70 160 110 70 160 110 70 160 110 70 160 110 70 160 110 70 160 110 70 250 244 235 250 244 235 250 244 235 250 244 235 250 244 235 250 244 235 250 244 235 250 244 235
250 244 235 250 244 235 250 244 235 250 244 235 250 244 235 250 244 235 250 244 235 250 244 235 250 244 235 160 110 70 160 110 70 160 110 70 160 110 70 160 110 70 160 110 70 160 110 70 160 110 70 160 110 70 160 110 70 160 110 70 160 110 70 160 110 70 160 110 70 160 110 70 160 110 70 160 110 70 160 110 70 160 110 70 160 110 70 160 110 70 160 110 70 160 110 70 160 110 70 160 110 70 160 110 70 160 110 70 160 110 70 160 110 70 160 110 70 160 110 70 160 110 70 160 110 70 160 110 70 160 110 70 160 110 70 160 110 70 160 110 70 160 110 70 160 110 70 160 110 70 160 110 70 160 110 70 160 110 70 160 110 70 160 110 70 160 110 70 250 244 235 250 244 235 250 244 235 250 244 235 250 244 235 250 244 235 250 244 235 250 244 235
250 244 235 250 244 235 250 244 235 250 244 235 250 244 235 250 244 235 250 244 235 250 244 235 250 244 235 160 110 70 160 110 70 160 110 70 160 110 70 160 110 70 160 110 70 160 110 70 160 110 70 160 110 70 160 110 70 160 110 70 160 110 70 160 110 70 160 110 70 160 110 70 160 110 70 160 110 70 160 110 70 160 110 70 160 110 70 160 110 70 160 110 70 160 110 70 160 110 70 160 110 70 160 110 70 160 110 70 160 110 70 160 110 70 160 110 70 160 110 70 160 110 70 160 110 70 160 110 70 160 110 70 160 110 70 160 110 70 160 110 70 160 110 70 160 110 70 160 110 70 160 110 70 160 110 70 160 110 70 160 110 70 160 110 70 160 110 70 250 244 235 250 244 235 250 244 235 250 244 235 250 244 235 250 244 235 250 244 235 250 244 235
250 244 235 250 244 235 250 244 235 250 244 235 250 244 235 250 244 235 250 244 235 250 244 235 250 244 235 160 110 70 160 110 70 160 110 70 160 110 70 160 110 70 160 110 70 160 110 70 160 110 70 160 110 70 160 110 70 160 110 70 160 110 70 160 110 70 160 110 70 160 110 70 160 110 70 160 110 70 160 110 70 160 110 70 160 110 70 160 110 70 160 110 70 160 110 70 160 110 70 160 110 70 160 110 70 160 110 70 160 110 70 160 110 70 160 110 70 160 110 70 160 110 70 160 110 70 160 110 70 160 110 70 160 110 70 160 110 70 160 110 70 160 110 70 160 110 70 160 110 70 160 110 70 160 110 70 160 110 70 160 110 70 160 110 70 160 110 70 250 244 235 250 244 235 250 244 235 250 244 235 250 244 235 250 244 235 250 244 235 250 244 235
250 244 235 250 244 235 250 244 235 250 244 235 250 244 235 250 244 235 250 244 235 250 244 235 250 244 235 160 110 70 160 110 70 160 110 70 160 110 70 160 110 70 160 110 70 160 110 70 160 110 70 160 110 70 160 110 70 160 110 70 160 110 70 160 110 70 160 110 70 160 110 70 160 110 70 160 110 70 160 110 70 160 110 70 160 110 70 160 110 70 160 110 70 160 110 70 160 110 70 160 110 70 160 110 70 160 110 70 160 110 70 160 110 70 160 110 70 160 110 70 160 110 70 160 110 70 160 110 70 160 110 70 160 110 70 160 110 70 160 110 70 160 110 70 160 110 70 160 110 70 160 110 70 160 110 70 160 110 70 160 110 70 160 110 70 160 110 70 250 244 235 250 244 235 250 244 235 250 244 235 250 244 235 250 244 235 250 244 235 250 244 235
250 244 235 250 244 235 250 244 235 250 244 235 250 244 235 250 244 235 250 244 235 250 244 235 250 244 235 160 110 70 160 110 70 160 110 70 160 110 70 160 110 70 160 110 70 160 110 70 160 110 70 160 110 70 160 110 70 160 110 70 160 110 70 160 110 70 160 110 70 160 110 70 160 110 70 160 110 70 160 110 70 160 110 70 160 110 70 160 110 70 160 110 70 160 110 70 160 110 70 160 110 70 160 110 70 160 110 70 160 110 70 160 110 70 160 110 70 160 110 70 160 110 70 160 110 70 160 110 70 160 110 70 160 110 70 160 110 70 160 110 70 160 110 70 160 110 70 160 110 70 160 110 70 160 110 70 160 110 70 160 110 70 160 110 70 160 110 70 250 244 235 250 244 235 250 244 235 250 244 235 250 244 235 250 244 235 250 244 235 250 244 235
250 244 235 250 244 235 250 244 235 250 244 235 250 244 235 250 244 235 250 244 235 250 244 235 250 244 235 160 110 70 160 110 70 160 110 70 160 110 70 160 110 70 160 110 70 160 110 70 160 110 70 160 110 70 160 110 70 160 110 70 160 110 70 160 110 70 160 110 70 160 110 70 160 110 70 160 110 70 160 110 70 160 110 70 160 110 70 160 110 70 160 110 70 160 110 70 160 110 70 160 110 70 160 110 70 160 110 70 160 110 70 160 110 70 160 110 70 160 110 70 160 110 70 160 110 70 160 110 70 160 110 70 160 110 70 160 110 70 160 110 70 160 110 70 160 110 70 160 110 70 160 110 70 160 110 70 160 110 70 160 110 70 160 110 70 160 110 70 250 244 235 250 244 235 250 244 235 250 244 235 250 244 235 250 244 235 250 244 235 250 244 235
250 244 235 250 244 235 250 244 235 250 244 235 250 244 235 250 244 235 250 244 235 250 244 235 250 244 235 160 110 70 160 110 70 160 110 70 160 110 70 160 110 70 160 110 70 160 110 70 160 110 70 160 110 70 160 110 70 160 110 70 160 110 70 160 110 70 160 110 70 160 110 70 160 110 70 160 110 70 160 110 70 160 110 70 160 110 70 160 110 70 160 110 70 160 110 70 160 110 70 160 110 70 160 110 70 160 110 70 160 110 70 160 110 70 160 110 70 160 110 70 160 110 70 160 110 70 160 110 70 160 110 70 160 110 70 160 110 70 160 110 70 160 110 70 160 110 70 160 110 70 160 110 70 160 110 70 160 110 70 160 110 70 160 110 70 160 110 70 250 244 235 250 244 235 250 244 235 250 244 235 250 244 235 250 244 235 250 244 235 250 244 235
250 244 235 250 244 235 250 244 235 250 244 235 250 244 235 250 244 235 250 244 235 250 244 235 250 244 235 160 110 70 160 110 70 160 110 70 160 110 70 160 110 70 160 110 70 160 110 70 160 110 70 160 110 70 160 110 70 160 110 70 160 110 70 160 110 70 160 110 70 160 110 70 160 110 70 160 110 70 160 110 70 160 110 70 160 110 70 160 110 70 160 110 70 160 110 70 160 110 70 160 110 70 160 110 70 160 110 70 160 110 70 160 110 70 160 110 70 160 110 70 160 110 70 160 110 70 160 110 70 160 110 70 160 110 70 160 110 70 160 110 70 160 110 70 160 110 70 160 110 70 160 110 70 160 110 70 160 110 70 160 110 70 160 110 70 160 110 70 250 244 235 250 244 235 250 244 235 250 244 235 250 244 235 250 244 235 250 244 235 250 244 235
250 244 235 250 244 235 250 244 235 250 244 235 250 244 235 250 244 235 250 244 235 250 244 235 250 244 235 209 180 159 209 180 159 209 180 159 209 180 159 209 180 159 209 180 159 209 180 159 209 180 159 209 180 159 209 180 159 209 180 159 209 180 159 209 180 159 209 180 159 209 180 159 209 180 159 209 180 159 209 180 159 209 180 159 209 180 159 209 180 159 209 180 159 209 180 159 209 180 159 209 180 159 209 180 159 209 180 159 209 180 159 209 180 159 209 180 159 209 180 159 209 180 159 209 180 159 209 180 159 209 180 159 209 180 159 209 180 159 209 180 159 209 180 159 209 180 159 209 180 159 209 180 159 209 180 159 209 180 159 209 180 159 209 180 159 209 180 159 250 244 235 250 244 235 250 244 235 250 244 235 250 244 235 250 244 235 250 244 235 250 244 235
250 244 235 250 244 235 250 244 235 250 244 235 250 244 235 250 244 235 250 244 235 250 244 235 250 244 235 209 180 159 209 180 159 209 180 159 209 180 159 209 180 159 209 180 159 209 180 159 209 180 159 209 180 159 209 180 159 209 180 159 209 180 159 209 180 159 209 180 159 209 180 159 209 180 159 209 180 159 209 180 159 209 180 159 209 180 159 209 180 159 209 180 159 209 180 159 209 180 159 209 180 159 209 180 159 209 180 159 209 180 159 209 180 159 209 180 159 209 180 159 209 180 159 209 180 159 209 180 159 209 180 159 209 180 159 209 180 159 209 180 159 209 180 159 209 180 159 209 180 159 209 180 159 209 180 159 209 180 159 209 180 159 209 180 159 209 180 159 250 244 235 250 244 235 250 244 235 250 244 235 250 244 235 250 244 235 250 244 235 250 244 235
250 244 235 250 244 235 250 244 235 250 244 235 250 244 235 250 244 235 250 244 235 250 244 235 250 244 235 209 180 159 209 180 159 209 180 159 209 180 159 209 180 159 209 180 159 209 180 159 209 180 159 209 180 159 209 180 159 209 180 159 209 180 159 209 180 159 209 180 159 209 180 159 209 180 159 209 180 159 209 180 159 209 180 159 209 180 159 209 180 159 209 180 159 209 180 159 209 180 159 209 180 159 209 180 159 209 180 159 209 180 159 209 180 159 209 180 159 209 180 159 209 180 159 209 180 159 209 180 159 209 180 159 209 180 159 209 180 159 209 180 159 209 180 159 209 180 159 209 180 159 209 180 159 209 180 159 209 180 159 209 180 159 209 180 159 209 180 159 250 244 235 250 244 235 250 244 235 250 244 235 250 244 235 250 244 235 250 244 235 250 244 235
250 244 235 250 244 235 250 244 235 250 244 235 250 244 235 250 244 235 250 244 235 250 244 235 250 244 235 209 180 159 209 180 159 209 180 159 209 180 159 209 180 159 209 180 159 209 180 159 209 180 159 209 180 159 209 180 159 209 180 159 209 180 159 209 180 159 209 180 159 209 180 159 209 180 159 209 180 159 209 180 159 209 180 159 209 180 159 209 180 159 209 180 159 209 180 159 209 180 159 209 180 159 209 180 159 209 180 159 209 180 159 209 180 159 209 180 159 209 180 159 209 180 159 209 180 159 209 180 159 209 180 159 209 180 159 209 180 159 209 180 159 209 180 159 209 180 159 209 180 159 209 180 159 209 180 159 209 180 159 209 180 159 209 180 159 209 180 159 250 244 235 250 244 235 250 244 235 250 244 235 250 244 235 250 244 235 250 244 235 250 244 235
250 244 235 250 244 235 250 244 235 250 244 235 250 244 235 250 244 235 250 244 235 250 244 235 250 244 235 209 180 159 209 180 159 209 180 159 209 180 159 209 180 159 209 180 159 209 180 159 209 180 159 209 180 159 209 180 159 209 180 159 209 180 159 209 180 159 209 180 159 209 180 159 209 180 159 209 180 159 209 180 159 209 180 159 209 180 159 209 180 159 209 180 159 209 180 159 209 180 159 209 180 159 209 180 159 209 180 159 209 180 159 209 180 159 209 180 159 209 180 159 209 180 159 209 180 159 209 180 159 209 180 159 209 180 159 209 180 159 209 180 159 209 180 159 209 180 159 209 180 159 209 180 159 209 180 159 209 180 159 209 180 159 209 180 159 209 180 159 250 244 235 250 244 235 250 244 235 250 244 235 250 244 235 250 244 235 250 244 235 250 244 235
250 244 235 250 244 235 250 244 235 250 244 235 250 244 235 250 244 235 250 244 235 250 244 235 250 244 235 209 180 159 209 180 159 209 180 159 209 180 159 209 180 159 209 180 159 209 180 159 209 180 159 209 180 159 209 180 159 209 180 159 209 180 159 209 180 159 209 180 159 209 180 159 209 180 159 209 180 159 209 180 159 209 180 159 209 180 159 209 180 159 209 180 159 209 180 159 209 180 159 209 180 159 209 180 159 209 180 159 209 180 159 209 180 159 209 180 159 209 180 159 209 180 159 209 180 159 209 180 159 209 180 159 209 180 159 209 180 159 209 180 159 209 180 159 209 180 159 209 180 159 209 180 159 209 180 159 209 180 159 209 180 159 209 180 159 209 180 159 250 244 235 250 244 235 250 244 235 250 244 235 250 244 235 250 244 235 250 244 235 250 244 235
250 244 235 250 244 235 250 244 235 250 244 235 250 244 235 250 244 235 250 244 235 250 244 235 250 244 235 209 180 159 209 180 159 209 180 159 209 180 159 209 180 159 209 180 159 209 180 159 209 180 159 209 180 159 209 180 159 209 180 159 209 180 159 209 180 159 209 180 159 209 180 159 209 180 159 209 180 159 209 180 159 209 180 159 209 180 159 209 180 159 209 180 159 209 180 159 209 180 159 209 180 159 209 180 159 209 180 159 209 180 159 209 180 159 209 180 159 209 180 159 209 180 159 209 180 159 209 180 159 209 180 159 209 180 159 209 180 159 209 180 159 209 180 159 209 180 159 209 180 159 209 180 159 209 180 159 209 180 159 209 180 159 209 180 159 209 180 159 250 244 235 250 244 235 250 244 235 250 244 235 250 244 235 250 244 235 250 244 235 250 244 235
250 244 235 250 244 235 250 244 235 250 244 235 250 244 235 250 244 235 250 244 235 250 244 235 250 244 235 209 180 159 209 180 159 209 180 159 209 180 159 209 180 159 209 180 159 209 180 159 209 180 159 209 180 159 209 180 159 209 180 159 209 180 159 209 180 159 209 180 159 209 180 159 209 180 159 209 180 159 209 180 159 209 180 159 209 180 159 209 180 159 209 180 159 209 180 159 209 180 159 209 180 159 209 180 159 209 180 159 209 180 159 209 180 159 209 180 159 209 180 159 209 180 159 209 180 159 209 180 159 209 180 159 209 180 159 209 180 159 209 180 159 209 180 159 209 180 159 209 180 159 209 180 159 209 180 159 209 180 159 209 180 159 209 180 159 209 180 159 250 244 235 250 244 235 250 244 235 250 244 235 250 244 235 250 244 235 250 244 235 250 244 235
250 244 235 250 244 235 250 244 235 250 244 235 250 244 235 250 244 235 250 244 235 250 244 235 250 244 235 209 180 159 209 180 159 209 180 159 209 180 159 209 180 159 209 180 159 209 180 159 209 180 159 209 180 159 209 180 159 209 180 159 209 180 159 209 180 159 209 180 159 209 180 159 209 180 159 209 180 159 209 180 159 209 180 159 209 180 159 209 180 159 209 180 159 209 180 159 209 180 159 209 180 159 209 180 159 209 180 159 209 180 159 209 180 159 209 180 159 209 180 159 209 180 159 209 180 159 209 180 159 209 180 159 209 180 159 209 180 159 209 180 159 209 180 159 209 180 159 209 180 159 209 180 159 209 180 159 209 180 159 209 180 159 209 180 159 209 180 159 250 244 235 250 244 235 250 244 235 250 244 235 250 244 235 250 244 235 250 244 235 250 244 235
250 244 235 250 244 235 250 244 235 250 244 235 250 244 235 250 244 235 250 244 235 250 244 235 250 244 235 209 180 159 209 180 159 209 180 159 209 180 159 209 180 159 209 180 159 209 180 159 209 180 159 209 180 159 209 180 159 209 180 159 209 180 159 209 180 159 209 180 159 209 180 159 209 180 159 209 180 159 209 180 159 209 180 159 209 180 159 209 180 159 209 180 159 209 180 159 209 180 159 209 180 159 209 180 159 209 180 159 209 180 159 209 180 159 209 180 159 209 180 159 209 180 159 209 180 159 209 180 159 209 180 159 209 180 159 209 180 159 209 180 159 209 180 159 209 180 159 209 180 159 209 180 159 209 180 159 209 180 159 209 180 159 209 180 159 209 180 159 250 244 235 250 244 235 250 244 235 250 244 235 250 244 235 250 244 235 250 244 235 250 244 235
250 244 235 250 244 235 250 244 235 250 244 235 250 244 235 250 244 235 250 244 235 250 244 235 250 244 235 209 180 159 209 180 159 209 180 159 209 180 159 209 180 159 209 180 159 209 180 159 209 180 159 209 180 159 209 180 159 209 180 159 209 180 159 209 180 159 209 180 159 209 180 159 209 180 159 209 180 159 209 180 159 209 180 159 209 180 159 209 180 159 209 180 159 209 180 159 209 180 159 209 180 159 209 180 159 209 180 159 209 180 159 209 180 159 209 180 159 209 180 159 209 180 159 209 180 159 209 180 159 209 180 159 209 180 159 209 180 159 209 180 159 209 180 159 209 180 159 209 180 159 209 180 159 209 180 159 209 180 159 209 180 159 209 180 159 209 180 159 250 244 235 250 244 235 250 244 235 250 244 235 250 244 235 250 244 235 250 244 235 250 244 235
250 244 235 250 244 235 250 244 235 250 244 235 250 244 235 250 244 235 250 244 235 250 244 235 250 244 235 209 180 159 209 180 159 209 180 159 209 180 159 209 180 159 209 180 159 209 180 159 209 180 159 209 180 159 209 180 159 209 180 159 209 180 159 209 180 159 209 180 159 209 180 159 209 180 159 209 180 159 209 180 159 209 180 159 209 180 159 209 180 159 209 180 159 209 180 159 209 180 159 209 180 159 209 180 159 209 180 159 209 180 159 209 180 159 209 180 159 209 180 159 209 180 159 209 180 159 209 180 159 209 180 159 209 180 159 209 180 159 209 180 159 209 180 159 209 180 159 209 180 159 209 180 159 209 180 159 209 180 159 209 180 159 209 180 159 209 180 159 250 244 235 250 244 235 250 244 235 250 244 235 250 244 235 250 244 235 250 244 235 250 244 235
250 244 235 250 244 235 250 244 235 250 244 235 250 244 235 250 244 235 250 244 235 250 244 235 250 244 235 209 180 159 209 180 159 209 180 159 209 180 159 209 180 159 209 180 159 209 180 159 209 180 159 209 180 159 209 180 159 209 180 159 209 180 159 209 180 159 209 180 159 209 180 159 209 180 159 209 180 159 209 180 159 209 180 159 209 180 159 209 180 159 209 180 159 209 180 159 209 180 159 209 180 159 209 180 159 209 180 159 209 180 159 209 180 159 209 180 159 209 180 159 209 180 159 209 180 159 209 180 159 209 180 159 209 180 159 209 180 159 209 180 159 209 180 159 209 180 159 209 180 159 209 180 159 209 180 159 209 180 159 209 180 159 209 180 159 209 180 159 250 244 235 250 244 235 250 244 235 250 244 235 250 244 235 250 244 235 250 244 235 250 244 235
250 244 235 250 244 235 250 244 235 250 244 235 250 244 235 250 244 235 250 244 235 250 244 235 250 244 235 209 180 159 209 180 159 209 180 159 209 180 159 209 180 159 209 180 159 209 180 159 209 180 159 209 180 159 209 180 159 209 180 159 209 180 159 209 180 159 209 180 159 209 180 159 209 180 159 209 180 159 209 180 159 209 180 159 209 180 159 209 180 159 209 180 159 209 180 159 209 180 159 209 180 159 209 180 159 209 180 159 209 180 159 209 180 159 209 180 159 209 180 159 209 180 159 209 180 159 209 180 159 209 180 159 209 180 159 209 180 159 209 180 159 209 180 159 209 180 159 209 180 159 209 180 159 209 180 159 209 180 159 209 180 159 209 180 159 209 180 159 250 244 235 250 244 235 250 244 235 250 244 235 250 244 235 250 244 235 250 244 235 250 244 235
250 244 235 250 244 235 250 244 235 250 244 235 250 244 235 250 244 235 250 244 235 250 244 235 250 244 235 209 180 159 209 180 159 209 180 159 209 180 159 209 180 159 209 180 159 209 180 159 209 180 159 209 180 159 209 180 159 209 180 159 209 180 159 209 180 159 209 180 159 209 180 159 209 180 159 209 180 159 209 180 159 209 180 159 209 180 159 209 180 159 209 180 159 209 180 159 209 180 159 209 180 159 209 180 159 209 180 159 209 180 159 209 180 159 209 180 159 209 180 159 209 180 159 209 180 159 209 180 159 209 180 159 209 180 159 209 180 159 209 180 159 209 180 159 209 180 159 209 180 159 209 180 159 209 180 159 209 180 159 209 180 159 209 180 159 209 180 159 250 244 235 250 244 235 250 244 235 250 244 235 250 244 235 250 244 235 250 244 235 250 244 235
250 244 235 250 244 235 250 244 235 250 244 235 250 244 235 250 244 235 250 244 235 250 244 235 250 244 235 209 180 159 209 180 159 209 180 159 209 180 159 209 180 159 209 180 159 209 180 159 209 180 159 209 180 159 209 180 159 209 180 159 209 180 159 209 180 159 209 180 159 209 180 159 209 180 159 209 180 159 209 180 159 209 180 159 209 180 159 209 180 159 209 180 159 209 180 159 209 180 159 209 180 159 209 180 159 209 180 159 209 180 159 209 180 159 209 180 159 209 180 159 209 180 159 209 180 159 209 180 159 209 180 159 209 180 159 209 180 159 209 180 159 209 180 159 209 180 159 209 180 159 209 180 159 209 180 159 209 180 159 209 180 159 209 180 159 209 180 159 250 244 235 250 244 235 250 244 235 250 244 235 250 244 235 250 244 235 250 244 235 250 244 235
250 244 235 250 244 235 250 244 235 250 244 235 250 244 235 250 244 235 250 244 235 250 244 235 250 244 235 250 244 235 250 244 235 250 244 235 250 244 235 250 244 235 250 244 235 250 244 235 250 244 235 250 244 235 250 244 235 250 244 235 250 244 235 250 244 235 250 244 235 250 244 235 250 244 235 250 244 235 250 244 235 250 244 235 250 244 235 250 244 235 250 244 235 250 244 235 250 244 235 250 244 235 250 244 235 250 244 235 250 244 235 250 244 235 250 244 235 250 244 235 250 244 235 250 244 235 250 244 235 250 244 235 250 244 235 250 244 235 250 244 235 250 244 235 250 244 235 250 244 235 250 244 235 250 244 235 250 244 235 250 244 235 250 244 235 250 244 235 250 244 235 250 244 235 250 244 235 250 244 235 250 244 235 250 244 235 250 244 235 250 244 235
250 244 235 250 244 235 250 244 235 250 244 235 250 244 235 250 244 235 250 244 235 250 244 235 250 244 235 250 244 235 250 244 235 250 244 235 250 244 235 250 244 235 250 244 235 250 244 235 250 244 235 250 244 235 250 244 235 250 244 235 250 244 235 250 244 235 250 244 235 250 244 235 250 244 235 250 244 235 250 244 235 250 244 235 250 244 235 250 244 235 250 244 235 250 244 235 250 244 235 250 244 235 250 244 235 250 244 235 250 244 235 250 244 235 250 244 235 250 244 235 250 244 235 250 244 235 250 244 235 250 244 235 250 244 235 250 244 235 250 244 235 250 244 235 250 244 235 250 244 235 250 244 235 250 244 235 250 244 235 250 244 235 250 244 235 250 244 235 250 244 235 250 244 235 250 244 235 250 244 235 250 244 235 250 244 235 250 244 235 250 244 235
250 244 235 250 244 235 250 244 235 250 244 235 250 244 235 250 244 235 250 244 235 250 244 235 250 244 235 250 244 235 250 244 235 250 244 235 250 244 235 250 244 235 250 244 235 250 244 235 250 244 235 250 244 235 250 244 235 250 244 235 250 244 235 250 244 235 250 244 235 250 244 235 250 244 235 250 244 235 250 244 235 250 244 235 250 244 235 250 244 235 250 244 235 250 244 235 250 244 235 250 244 235 250 244 235 250 244 235 250 244 235 250 244 235 250 244 235 250 244 235 250 244 235 250 244 235 250 244 235 250 244 235 250 244 235 250 244 235 250 244 235 250 244 235 250 244 235 250 244 235 250 244 235 250 244 235 250 244 235 250 244 235 250 244 235 250 244 235 250 244 235 250 244 235 250 244 235 250 244 235 250 244 235 250 244 235 250 244 235 250 244 235
250 244 235 250 244 235 250 244 235 250 244 235 250 244 235 250 244 235 250 244 235 250 244 235 250 244 235 250 244 235 250 244 235 250 244 235 250 244 235 250 244 235 250 244 235 250 244 235 250 244 235 250 244 235 250 244 235 250 244 235 250 244 235 250 244 235 250 244 235 250 244 235 250 244 235 250 244 235 250 244 235 250 244 235 250 244 235 250 244 235 250 244 235 250 244 235 250 244 235 250 244 235 250 244 235 250 244 235 250 244 235 250 244 235 250 244 235 250 244 235 250 244 235 250 244 235 250 244 235 250 244 235 250 244 235 250 244 235 250 244 235 250 244 235 250 244 235 250 244 235 250 244 235 250 244 235 250 244 235 250 244 235 250 244 235 250 244 235 250 244 235 250 244 235 250 244 235 250 244 235 250 244 235 250 244 235 250 244 235 250 244 235
