P3
64 64
255
242 237 227 242 237 227 242 237 227 242 237 227 242 237 227 242 237 227 242 237 227 242 237 227 242 237 227 242 237 227 242 237 227 242 237 227 242 237 227 242 237 227 242 237 227 242 237 227 242 237 227 242 237 227 242 237 227 242 237 227 242 237 227 242 237 227 242 237 227 242 237 227 242 237 227 242 237 227 242 237 227 242 237 227 242 237 227 242 237 227 242 237 227 242 237 227 242 237 227 242 237 227 242 237 227 242 237 227 242 237 227 242 237 227 242 237 227 242 237 227 242 237 227 242 237 227 242 237 227 242 237 227 242 237 227 242 237 227 242 237 227 242 237 227 242 237 227 242 237 227 242 237 227 242 237 227 242 237 227 242 237 227 242 237 227 242 237 227 242 237 227 242 237 227 242 237 227 242 237 227 242 237 227 242 237 227 242 237 227 242 237 227
242 237 227 242 237 227 242 237 227 242 237 227 242 237 227 242 237 227 242 237 227 242 237 227 242 237 227 242 237 227 242 237 227 242 237 227 242 237 227 242 237 227 242 237 227 242 237 227 242 237 227 242 237 227 242 237 227 242 237 227 242 237 227 242 237 227 242 237 227 242 237 227 242 237 227 242 237 227 242 237 227 242 237 227 242 237 227 242 237 227 242 237 227 242 237 227 242 237 227 242 237 227 242 237 227 242 237 227 242 237 227 242 237 227 242 237 227 242 237 227 242 237 227 242 237 227 242 237 227 242 237 227 242 237 227 242 237 227 242 237 227 242 237 227 242 237 227 242 237 227 242 237 227 242 237 227 242 237 227 242 237 227 242 237 227 242 237 227 242 237 227 242 237 227 242 237 227 242 237 227 242 237 227 242 237 227 242 237 227 242 237 227
242 237 227 242 237 227 242 237 227 242 237 227 242 237 227 242 237 227 242 237 227 242 237 227 242 237 227 242 237 227 242 237 227 242 237 227 242 237 227 242 237 227 242 237 227 242 237 227 242 237 227 242 237 227 242 237 227 242 237 227 242 237 227 242 237 227 242 237 227 242 237 227 242 237 227 242 237 227 242 237 227 242 237 227 242 237 227 242 237 227 242 237 227 242 237 227 242 237 227 242 237 227 242 237 227 242 237 227 242 237 227 242 237 227 242 237 227 242 237 227 242 237 227 242 237 227 242 237 227 242 237 227 242 237 227 242 237 227 242 237 227 242 237 227 242 237 227 242 237 227 242 237 227 242 237 227 242 237 227 242 237 227 242 237 227 242 237 227 242 237 227 242 237 227 242 237 227 242 237 227 242 237 227 242 237 227 242 237 227 242 237 227
242 237 227 242 237 227 242 237 227 242 237 227 242 237 227 242 237 227 242 237 227 242 237 227 242 237 227 242 237 227 242 237 227 242 237 227 242 237 227 242 237 227 242 237 227 242 237 227 242 237 227 242 237 227 242 237 227 242 237 227 242 237 227 242 237 227 242 237 227 242 237 227 242 237 227 242 237 227 242 237 227 242 237 227 242 237 227 242 237 227 242 237 227 242 237 227 242 237 227 242 237 227 242 237 227 242 237 227 242 237 227 242 237 227 242 237 227 242 237 227 242 237 227 242 237 227 242 237 227 242 237 227 242 237 227 242 237 227 242 237 227 242 237 227 242 237 227 242 237 227 242 237 227 242 237 227 242 237 227 242 237 227 242 237 227 242 237 227 242 237 227 242 237 227 242 237 227 242 237 227 242 237 227 242 237 227 242 237 227 242 237 227
242 237 227 242 237 227 242 237 227 242 237 227 242 237 227 242 237 227 242 237 227 242 237 227 242 237 227 242 237 227 242 237 227 242 237 227 242 237 227 242 237 227 242 237 227 242 237 227 242 237 227 242 237 227 242 237 227 242 237 227 242 237 227 242 237 227 242 237 227 242 237 227 242 237 227 242 237 227 242 237 227 242 237 227 242 237 227 242 237 227 242 237 227 242 237 227 242 237 227 242 237 227 242 237 227 242 237 227 242 237 227 242 237 227 242 237 227 242 237 227 242 237 227 242 237 227 242 237 227 242 237 227 242 237 227 242 237 227 242 237 227 242 237 227 242 237 227 242 237 227 242 237 227 242 237 227 242 237 227 242 237 227 242 237 227 242 237 227 242 237 227 242 237 227 242 237 227 242 237 227 242 237 227 242 237 227 242 237 227 242 237 227
242 237 227 242 237 227 242 237 227 242 237 227 242 237 227 242 237 227 242 237 227 242 237 227 242 237 227 242 237 227 242 237 227 242 237 227 242 237 227 242 237 227 242 237 227 242 237 227 242 237 227 242 237 227 242 237 227 242 237 227 242 237 227 242 237 227 242 237 227 242 237 227 242 237 227 242 237 227 242 237 227 242 237 227 242 237 227 242 237 227 242 237 227 242 237 227 242 237 227 242 237 227 242 237 227 242 237 227 242 237 227 242 237 227 242 237 227 242 237 227 242 237 227 242 237 227 242 237 227 242 237 227 242 237 227 242 237 227 242 237 227 242 237 227 242 237 227 242 237 227 242 237 227 242 237 227 242 237 227 242 237 227 242 237 227 242 237 227 242 237 227 242 237 227 242 237 227 242 237 227 242 237 227 242 237 227 242 237 227 242 237 227
242 237 227 242 237 227 242 237 227 242 237 227 242 237 227 242 237 227 242 237 227 242 237 227 242 237 227 242 237 227 242 237 227 242 237 227 242 237 227 242 237 227 242 237 227 242 237 227 242 237 227 242 237 227 242 237 227 242 237 227 242 237 227 242 237 227 242 237 227 242 237 227 242 237 227 242 237 227 242 237 227 242 237 227 242 237 227 242 237 227 242 237 227 242 237 227 242 237 227 242 237 227 242 237 227 242 237 227 242 237 227 242 237 227 242 237 227 242 237 227 242 237 227 242 237 227 242 237 227 242 237 227 242 237 227 242 237 227 242 237 227 242 237 227 242 237 227 242 237 227 242 237 227 242 237 227 242 237 227 242 237 227 242 237 227 242 237 227 242 237 227 242 237 227 242 237 227 242 237 227 242 237 227 242 237 227 242 237 227 242 237 227
242 237 227 242 237 227 242 237 227 242 237 227 242 237 227 242 237 227 242 237 227 242 237 227 242 237 227 242 237 227 242 237 227 242 237 227 242 237 227 242 237 227 242 237 227 242 237 227 242 237 227 242 237 227 242 237 227 242 237 227 242 237 227 242 237 227 242 237 227 242 237 227 242 237 227 242 237 227 242 237 227 242 237 227 242 237 227 242 237 227 242 237 227 242 237 227 242 237 227 242 237 227 242 237 227 242 237 227 242 237 227 242 237 227 242 237 227 242 237 227 242 237 227 242 237 227 242 237 227 242 237 227 242 237 227 242 237 227 242 237 227 242 237 227 242 237 227 242 237 227 242 237 227 242 237 227 242 237 227 242 237 227 242 237 227 242 237 227 242 237 227 242 237 227 242 237 227 242 237 227 242 237 227 242 237 227 242 237 227 242 237 227
242 237 227 242 237 227 242 237 227 242 237 227 242 237 227 242 237 227 242 237 227 242 237 227 242 237 227 242 237 227 242 237 227 242 237 227 242 237 227 242 237 227 242 237 227 242 237 227 242 237 227 242 237 227 242 237 227 242 237 227 242 237 227 242 237 227 242 237 227 242 237 227 242 237 227 242 237 227 242 237 227 242 237 227 242 237 227 242 237 227 242 237 227 242 237 227 242 237 227 242 237 227 242 237 227 242 237 227 242 237 227 242 237 227 242 237 227 242 237 227 242 237 227 242 237 227 242 237 227 242 237 227 242 237 227 242 237 227 242 237 227 242 237 227 242 237 227 242 237 227 242 237 227 242 237 227 242 237 227 242 237 227 242 237 227 242 237 227 242 237 227 242 237 227 242 237 227 242 237 227 242 237 227 242 237 227 242 237 227 242 237 227
242 237 227 242 237 227 242 237 227 242 237 227 242 237 227 242 237 227 242 237 227 242 237 227 242 237 227 242 237 227 242 237 227 242 237 227 242 237 227 242 237 227 242 237 227 242 237 227 242 237 227 242 237 227 242 237 227 242 237 227 242 237 227 242 237 227 242 237 227 242 237 227 242 237 227 242 237 227 242 237 227 242 237 227 242 237 227 242 237 227 242 237 227 242 237 227 242 237 227 242 237 227 242 237 227 242 237 227 242 237 227 242 237 227 242 237 227 242 237 227 242 237 227 242 237 227 242 237 227 242 237 227 242 237 227 242 237 227 242 237 227 242 237 227 242 237 227 242 237 227 242 237 227 242 237 227 242 237 227 242 237 227 242 237 227 242 237 227 242 237 227 242 237 227 242 237 227 242 237 227 242 237 227 242 237 227 242 237 227 242 237 227
242 237 227 242 237 227 242 237 227 242 237 227 242 237 227 242 237 227 242 237 227 242 237 227 242 237 227 242 237 227 242 237 227 242 237 227 242 237 227 242 237 227 242 237 227 242 237 227 242 237 227 242 237 227 242 237 227 242 237 227 242 237 227 242 237 227 242 237 227 242 237 227 242 237 227 242 237 227 242 237 227 242 237 227 242 237 227 242 237 227 242 237 227 242 237 227 242 237 227 242 237 227 242 237 227 242 237 227 242 237 227 242 237 227 242 237 227 242 237 227 242 237 227 242 237 227 242 237 227 242 237 227 242 237 227 242 237 227 242 237 227 242 237 227 242 237 227 242 237 227 242 237 227 242 237 227 242 237 227 242 237 227 242 237 227 242 237 227 242 237 227 242 237 227 242 237 227 242 237 227 242 237 227 242 237 227 242 237 227 242 237 227
242 237 227 242 237 227 242 237 227 242 237 227 242 237 227 242 237 227 242 237 227 242 237 227 242 237 227 242 237 227 242 237 227 242 237 227 242 237 227 242 237 227 242 237 227 242 237 227 242 237 227 242 237 227 242 237 227 242 237 227 242 237 227 242 237 227 242 237 227 242 237 227 242 237 227 242 237 227 242 237 227 242 237 227 242 237 227 242 237 227 242 237 227 242 237 227 242 237 227 242 237 227 242 237 227 242 237 227 242 237 227 242 237 227 242 237 227 242 237 227 242 237 227 242 237 227 242 237 227 242 237 227 242 237 227 242 237 227 242 237 227 242 237 227 242 237 227 242 237 227 242 237 227 242 237 227 242 237 227 242 237 227 242 237 227 242 237 227 242 237 227 242 237 227 242 237 227 242 237 227 242 237 227 242 237 227 242 237 227 242 237 227
242 237 227 242 237 227 242 237 227 242 237 227 242 237 227 242 237 227 242 237 227 242 237 227 242 237 227 242 237 227 242 237 227 242 237 227 242 237 227 242 237 227 242 237 227 242 237 227 242 237 227 242 237 227 242 237 227 242 237 227 242 237 227 242 237 227 242 237 227 242 237 227 242 237 227 242 237 227 242 237 227 242 237 227 242 237 227 242 237 227 242 237 227 242 237 227 242 237 227 242 237 227 242 237 227 242 237 227 242 237 227 242 237 227 242 237 227 242 237 227 242 237 227 242 237 227 242 237 227 242 237 227 242 237 227 242 237 227 242 237 227 242 237 227 242 237 227 242 237 227 242 237 227 242 237 227 242 237 227 242 237 227 242 237 227 242 237 227 242 237 227 242 237 227 242 237 227 242 237 227 242 237 227 242 237 227 242 237 227 242 237 227
242 237 227 242 237 227 242 237 227 242 237 227 242 237 227 242 237 227 242 237 227 242 237 227 242 237 227 242 237 227 242 237 227 242 237 227 242 237 227 242 237 227 242 237 227 242 237 227 242 237 227 242 237 227 242 237 227 242 237 227 242 237 227 242 237 227 242 237 227 242 237 227 242 237 227 242 237 227 242 237 227 242 237 227 242 237 227 242 237 227 242 237 227 242 237 227 242 237 227 242 237 227 242 237 227 242 237 227 242 237 227 242 237 227 242 237 227 242 237 227 242 237 227 242 237 227 242 237 227 242 237 227 242 237 227 242 237 227 242 237 227 242 237 227 242 237 227 242 237 227 242 237 227 242 237 227 242 237 227 242 237 227 242 237 227 242 237 227 242 237 227 242 237 227 242 237 227 242 237 227 242 237 227 242 237 227 242 237 227 242 237 227
242 237 227 242 237 227 242 237 227 242 237 227 242 237 227 242 237 227 242 237 227 242 237 227 242 237 227 242 237 227 242 237 227 242 237 227 242 237 227 242 237 227 242 237 227 242 237 227 242 237 227 242 237 227 242 237 227 242 237 227 242 237 227 242 237 227 242 237 227 242 237 227 242 237 227 242 237 227 242 237 227 242 237 227 242 237 227 242 237 227 242 237 227 242 237 227 242 237 227 242 237 227 242 237 227 242 237 227 242 237 227 242 237 227 242 237 227 242 237 227 242 237 227 242 237 227 242 237 227 242 237 227 242 237 227 242 237 227 242 237 227 242 237 227 242 237 227 242 237 227 242 237 227 242 237 227 242 237 227 242 237 227 242 237 227 242 237 227 242 237 227 242 237 227 242 237 227 242 237 227 242 237 227 242 237 227 242 237 227 242 237 227
242 237 227 242 237 227 242 237 227 242 237 227 242 237 227 242 237 227 242 237 227 242 237 227 242 237 227 242 237 227 242 237 227 242 237 227 242 237 227 242 237 227 242 237 227 242 237 227 242 237 227 242 237 227 242 237 227 242 237 227 242 237 227 242 237 227 242 237 227 242 237 227 242 237 227 242 237 227 242 237 227 242 237 227 242 237 227 242 237 227 242 237 227 242 237 227 242 237 227 242 237 227 242 237 227 242 237 227 242 237 227 242 237 227 242 237 227 242 237 227 242 237 227 242 237 227 242 237 227 242 237 227 242 237 227 242 237 227 242 237 227 242 237 227 242 237 227 242 237 227 242 237 227 242 237 227 242 237 227 242 237 227 242 237 227 242 237 227 242 237 227 242 237 227 242 237 227 242 237 227 242 237 227 242 237 227 242 237 227 242 237 227
242 237 227 242 237 227 242 237 227 242 237 227 242 237 227 242 237 227 242 237 227 242 237 227 242 237 227 242 237 227 242 237 227 242 237 227 242 237 227 242 237 227 242 237 227 242 237 227 242 237 227 242 237 227 242 237 227 242 237 227 242 237 227 242 237 227 242 237 227 242 237 227 242 237 227 242 237 227 242 237 227 242 237 227 242 237 227 242 237 227 242 237 227 242 237 227 242 237 227 242 237 227 242 237 227 242 237 227 242 237 227 242 237 227 242 237 227 242 237 227 242 237 227 242 237 227 242 237 227 242 237 227 242 237 227 242 237 227 242 237 227 242 237 227 242 237 227 242 237 227 242 237 227 242 237 227 242 237 227 242 237 227 242 237 227 242 237 227 242 237 227 242 237 227 242 237 227 242 237 227 242 237 227 242 237 227 242 237 227 242 237 227
242 237 227 242 237 227 242 237 227 242 237 227 242 237 227 242 237 227 242 237 227 242 237 227 242 237 227 242 237 227 242 237 227 242 237 227 242 237 227 242 237 227 242 237 227 242 237 227 242 237 227 242 237 227 242 237 227 242 237 227 242 237 227 242 237 227 242 237 227 242 237 227 242 237 227 242 237 227 242 237 227 242 237 227 242 237 227 242 237 227 242 237 227 242 237 227 242 237 227 242 237 227 242 237 227 242 237 227 242 237 227 242 237 227 242 237 227 242 237 227 242 237 227 242 237 227 242 237 227 242 237 227 242 237 227 242 237 227 242 237 227 242 237 227 242 237 227 242 237 227 242 237 227 242 237 227 242 237 227 242 237 227 242 237 227 242 237 227 242 237 227 242 237 227 242 237 227 242 237 227 242 237 227 242 237 227 242 237 227 242 237 227
242 237 227 242 237 227 242 237 227 242 237 227 242 237 227 242 237 227 242 237 227 242 237 227 242 237 227 242 237 227 242 237 227 242 237 227 242 237 227 242 237 227 242 237 227 242 237 227 242 237 227 242 237 227 242 237 227 242 237 227 242 237 227 242 237 227 242 237 227 242 237 227 242 237 227 242 237 227 242 237 227 242 237 227 242 237 227 242 237 227 242 237 227 242 237 227 242 237 227 242 237 227 242 237 227 242 237 227 242 237 227 242 237 227 242 237 227 242 237 227 242 237 227 242 237 227 242 237 227 242 237 227 242 237 227 242 237 227 242 237 227 242 237 227 242 237 227 242 237 227 242 237 227 242 237 227 242 237 227 242 237 227 242 237 227 242 237 227 242 237 227 242 237 227 242 237 227 242 237 227 242 237 227 242 237 227 242 237 227 242 237 227
242 237 227 242 237 227 242 237 227 242 237 227 242 237 227 242 237 227 242 237 227 242 237 227 242 237 227 242 237 227 242 237 227 242 237 227 242 237 227 242 237 227 242 237 227 242 237 227 242 237 227 242 237 227 242 237 227 75 101 132 75 101 132 75 101 132 75 101 132 75 101 132 75 101 132 75 101 132 75 101 132 75 101 132 75 101 132 75 101 132 75 101 132 75 101 132 75 101 132 75 101 132 75 101 132 75 101 132 75 101 132 75 101 132 75 101 132 75 101 132 75 101 132 75 101 132 75 101 132 75 101 132 75 101 132 75 101 132 242 237 227 242 237 227 242 237 227 242 237 227 242 237 227 242 237 227 242 237 227 242 237 227 242 237 227 242 237 227 242 237 227 242 237 227 242 237 227 242 237 227 242 237 227 242 237 227 242 237 227 242 237 227
242 237 227 242 237 227 242 237 227 242 237 227 242 237 227 242 237 227 242 237 227 242 237 227 242 237 227 242 237 227 242 237 227 242 237 227 242 237 227 242 237 227 242 237 227 242 237 227 242 237 227 242 237 227 242 237 227 75 101 132 75 101 132 75 101 132 75 101 132 75 101 132 75 101 132 75 101 132 75 101 132 75 101 132 75 101 132 75 101 132 75 101 132 75 101 132 75 101 132 75 101 132 75 101 132 75 101 132 75 101 132 75 101 132 75 101 132 75 101 132 75 101 132 75 101 132 75 101 132 75 101 132 75 101 132 75 101 132 242 237 227 242 237 227 242 237 227 242 237 227 242 237 227 242 237 227 242 237 227 242 237 227 242 237 227 242 237 227 242 237 227 242 237 227 242 237 227 242 237 227 242 237 227 242 237 227 242 237 227 242 237 227
242 237 227 242 237 227 242 237 227 242 237 227 242 237 227 242 237 227 242 237 227 242 237 227 242 237 227 242 237 227 242 237 227 75 101 132 75 101 132 75 101 132 75 101 132 75 101 132 75 101 132 75 101 132 75 101 132 75 101 132 75 101 132 75 101 132 75 101 132 75 101 132 75 101 132 75 101 132 75 101 132 75 101 132 75 101 132 75 101 132 75 101 132 75 101 132 75 101 132 75 101 132 75 101 132 75 101 132 75 101 132 75 101 132 75 101 132 75 101 132 75 101 132 75 101 132 75 101 132 75 101 132 75 101 132 75 101 132 75 101 132 75 101 132 75 101 132 75 101 132 75 101 132 75 101 132 75 101 132 75 101 132 242 237 227 242 237 227 242 237 227 242 237 227 242 237 227 242 237 227 242 237 227 242 237 227 242 237 227 242 237 227
242 237 227 242 237 227 242 237 227 242 237 227 242 237 227 242 237 227 242 237 227 242 237 227 242 237 227 242 237 227 242 237 227 75 101 132 75 101 132 75 101 132 75 101 132 75 101 132 75 101 132 75 101 132 75 101 132 75 101 132 75 101 132 75 101 132 75 101 132 75 101 132 75 101 132 75 101 132 75 101 132 75 101 132 75 101 132 75 101 132 75 101 132 75 101 132 75 101 132 75 101 132 75 101 132 75 101 132 75 101 132 75 101 132 75 101 132 75 101 132 75 101 132 75 101 132 75 101 132 75 101 132 75 101 132 75 101 132 75 101 132 75 101 132 75 101 132 75 101 132 75 101 132 75 101 132 75 101 132 75 101 132 242 237 227 242 237 227 242 237 227 242 237 227 242 237 227 242 237 227 242 237 227 242 237 227 242 237 227 242 237 227
242 237 227 242 237 227 242 237 227 242 237 227 242 237 227 242 237 227 242 237 227 242 237 227 242 237 227 242 237 227 242 237 227 75 101 132 75 101 132 75 101 132 75 101 132 75 101 132 75 101 132 75 101 132 75 101 132 75 101 132 75 101 132 75 101 132 75 101 132 75 101 132 75 101 132 75 101 132 75 101 132 75 101 132 75 101 132 75 101 132 75 101 132 75 101 132 75 101 132 75 101 132 75 101 132 75 101 132 75 101 132 75 101 132 75 101 132 75 101 132 75 101 132 75 101 132 75 101 132 75 101 132 75 101 132 75 101 132 75 101 132 75 101 132 75 101 132 75 101 132 75 101 132 75 101 132 75 101 132 75 101 132 242 237 227 242 237 227 242 237 227 242 237 227 242 237 227 242 237 227 242 237 227 242 237 227 242 237 227 242 237 227
242 237 227 242 237 227 242 237 227 242 237 227 242 237 227 242 237 227 242 237 227 242 237 227 242 237 227 242 237 227 242 237 227 75 101 132 75 101 132 75 101 132 75 101 132 75 101 132 75 101 132 75 101 132 75 101 132 75 101 132 75 101 132 75 101 132 75 101 132 75 101 132 75 101 132 75 101 132 75 101 132 75 101 132 75 101 132 75 101 132 75 101 132 75 101 132 75 101 132 75 101 132 75 101 132 75 101 132 75 101 132 75 101 132 75 101 132 75 101 132 75 101 132 75 101 132 75 101 132 75 101 132 75 101 132 75 101 132 75 101 132 75 101 132 75 101 132 75 101 132 75 101 132 75 101 132 75 101 132 75 101 132 242 237 227 242 237 227 242 237 227 242 237 227 242 237 227 242 237 227 242 237 227 242 237 227 242 237 227 242 237 227
242 237 227 242 237 227 242 237 227 242 237 227 242 237 227 242 237 227 242 237 227 242 237 227 242 237 227 242 237 227 242 237 227 75 101 132 75 101 132 75 101 132 75 101 132 75 101 132 75 101 132 75 101 132 75 101 132 75 101 132 75 101 132 75 101 132 75 101 132 75 101 132 75 101 132 75 101 132 75 101 132 75 101 132 75 101 132 75 101 132 75 101 132 75 101 132 75 101 132 75 101 132 75 101 132 75 101 132 75 101 132 75 101 132 75 101 132 75 101 132 75 101 132 75 101 132 75 101 132 75 101 132 75 101 132 75 101 132 75 101 132 75 101 132 75 101 132 75 101 132 75 101 132 75 101 132 75 101 132 75 101 132 242 237 227 242 237 227 242 237 227 242 237 227 242 237 227 242 237 227 242 237 227 242 237 227 242 237 227 242 237 227
242 237 227 242 237 227 242 237 227 242 237 227 242 237 227 242 237 227 242 237 227 242 237 227 242 237 227 242 237 227 242 237 227 75 101 132 75 101 132 75 101 132 75 101 132 75 101 132 75 101 132 75 101 132 75 101 132 75 101 132 75 101 132 75 101 132 75 101 132 75 101 132 75 101 132 75 101 132 75 101 132 75 101 132 75 101 132 75 101 132 75 101 132 75 101 132 75 101 132 75 101 132 75 101 132 75 101 132 75 101 132 75 101 132 75 101 132 75 101 132 75 101 132 75 101 132 75 101 132 75 101 132 75 101 132 75 101 132 75 101 132 75 101 132 75 101 132 75 101 132 75 101 132 75 101 132 75 101 132 75 101 132 242 237 227 242 237 227 242 237 227 242 237 227 242 237 227 242 237 227 242 237 227 242 237 227 242 237 227 242 237 227
242 237 227 242 237 227 242 237 227 242 237 227 242 237 227 242 237 227 242 237 227 242 237 227 242 237 227 242 237 227 242 237 227 75 101 132 75 101 132 75 101 132 75 101 132 75 101 132 75 101 132 75 101 132 75 101 132 75 101 132 75 101 132 75 101 132 75 101 132 75 101 132 75 101 132 75 101 132 75 101 132 75 101 132 75 101 132 75 101 132 75 101 132 75 101 132 75 101 132 75 101 132 75 101 132 75 101 132 75 101 132 75 101 132 75 101 132 75 101 132 75 101 132 75 101 132 75 101 132 75 101 132 75 101 132 75 101 132 75 101 132 75 101 132 75 101 132 75 101 132 75 101 132 75 101 132 75 101 132 75 101 132 242 237 227 242 237 227 242 237 227 242 237 227 242 237 227 242 237 227 242 237 227 242 237 227 242 237 227 242 237 227
242 237 227 242 237 227 242 237 227 242 237 227 242 237 227 242 237 227 242 237 227 242 237 227 242 237 227 242 237 227 242 237 227 75 101 132 75 101 132 75 101 132 75 101 132 75 101 132 75 101 132 75 101 132 75 101 132 75 101 132 75 101 132 75 101 132 75 101 132 75 101 132 75 101 132 75 101 132 75 101 132 75 101 132 75 101 132 75 101 132 75 101 132 75 101 132 75 101 132 75 101 132 75 101 132 75 101 132 75 101 132 75 101 132 75 101 132 75 101 132 75 101 132 75 101 132 75 101 132 75 101 132 75 101 132 75 101 132 75 101 132 75 101 132 75 101 132 75 101 132 75 101 132 75 101 132 75 101 132 75 101 132 242 237 227 242 237 227 242 237 227 242 237 227 242 237 227 242 237 227 242 237 227 242 237 227 242 237 227 242 237 227
242 237 227 242 237 227 242 237 227 242 237 227 242 237 227 242 237 227 242 237 227 242 237 227 242 237 227 242 237 227 242 237 227 75 101 132 75 101 132 75 101 132 75 101 132 75 101 132 75 101 132 75 101 132 75 101 132 75 101 132 75 101 132 75 101 132 75 101 132 75 101 132 75 101 132 75 101 132 75 101 132 75 101 132 75 101 132 75 101 132 75 101 132 75 101 132 75 101 132 75 101 132 75 101 132 75 101 132 75 101 132 75 101 132 75 101 132 75 101 132 75 101 132 75 101 132 75 101 132 75 101 132 75 101 132 75 101 132 75 101 132 75 101 132 75 101 132 75 101 132 75 101 132 75 101 132 75 101 132 75 101 132 242 237 227 242 237 227 242 237 227 242 237 227 242 237 227 242 237 227 242 237 227 242 237 227 242 237 227 242 237 227
242 237 227 242 237 227 242 237 227 242 237 227 242 237 227 242 237 227 242 237 227 242 237 227 242 237 227 242 237 227 242 237 227 75 101 132 75 101 132 75 101 132 75 101 132 75 101 132 75 101 132 75 101 132 75 101 132 75 101 132 75 101 132 75 101 132 75 101 132 75 101 132 75 101 132 75 101 132 75 101 132 75 101 132 75 101 132 75 101 132 75 101 132 75 101 132 75 101 132 75 101 132 75 101 132 75 101 132 75 101 132 75 101 132 75 101 132 75 101 132 75 101 132 75 101 132 75 101 132 75 101 132 75 101 132 75 101 132 75 101 132 75 101 132 75 101 132 75 101 132 75 101 132 75 101 132 75 101 132 75 101 132 242 237 227 242 237 227 242 237 227 242 237 227 242 237 227 242 237 227 242 237 227 242 237 227 242 237 227 242 237 227
242 237 227 242 237 227 242 237 227 242 237 227 242 237 227 242 237 227 242 237 227 242 237 227 242 237 227 242 237 227 242 237 227 75 101 132 75 101 132 75 101 132 75 101 132 75 101 132 75 101 132 75 101 132 75 101 132 75 101 132 75 101 132 75 101 132 75 101 132 75 101 132 75 101 132 75 101 132 75 101 132 75 101 132 75 101 132 75 101 132 75 101 132 75 101 132 75 101 132 75 101 132 75 101 132 75 101 132 75 101 132 75 101 132 75 101 132 75 101 132 75 101 132 75 101 132 75 101 132 75 101 132 75 101 132 75 101 132 75 101 132 75 101 132 75 101 132 75 101 132 75 101 132 75 101 132 75 101 132 75 101 132 242 237 227 242 237 227 242 237 227 242 237 227 242 237 227 242 237 227 242 237 227 242 237 227 242 237 227 242 237 227
242 237 227 242 237 227 242 237 227 242 237 227 242 237 227 242 237 227 242 237 227 242 237 227 242 237 227 242 237 227 242 237 227 75 101 132 75 101 132 75 101 132 75 101 132 75 101 132 75 101 132 75 101 132 75 101 132 75 101 132 75 101 132 75 101 132 75 101 132 75 101 132 75 101 132 75 101 132 75 101 132 75 101 132 75 101 132 75 101 132 75 101 132 75 101 132 75 101 132 75 101 132 75 101 132 75 101 132 75 101 132 75 101 132 75 101 132 75 101 132 75 101 132 75 101 132 75 101 132 75 101 132 75 101 132 75 101 132 75 101 132 75 101 132 75 101 132 75 101 132 75 101 132 75 101 132 75 101 132 75 101 132 242 237 227 242 237 227 242 237 227 242 237 227 242 237 227 242 237 227 242 237 227 242 237 227 242 237 227 242 237 227
242 237 227 242 237 227 242 237 227 242 237 227 242 237 227 242 237 227 242 237 227 242 237 227 242 237 227 242 237 227 242 237 227 75 101 132 75 101 132 75 101 132 75 101 132 75 101 132 75 101 132 75 101 132 75 101 132 75 101 132 75 101 132 75 101 132 75 101 132 75 101 132 75 101 132 75 101 132 75 101 132 75 101 132 75 101 132 75 101 132 75 101 132 75 101 132 75 101 132 75 101 132 75 101 132 75 101 132 75 101 132 75 101 132 75 101 132 75 101 132 75 101 132 75 101 132 75 101 132 75 101 132 75 101 132 75 101 132 75 101 132 75 101 132 75 101 132 75 101 132 75 101 132 75 101 132 75 101 132 75 101 132 242 237 227 242 237 227 242 237 227 242 237 227 242 237 227 242 237 227 242 237 227 242 237 227 242 237 227 242 237 227
242 237 227 242 237 227 242 237 227 242 237 227 242 237 227 242 237 227 242 237 227 242 237 227 242 237 227 242 237 227 242 237 227 75 101 132 75 101 132 75 101 132 75 101 132 75 101 132 75 101 132 75 101 132 75 101 132 75 101 132 75 101 132 75 101 132 75 101 132 75 101 132 75 101 132 75 101 132 75 101 132 75 101 132 75 101 132 75 101 132 75 101 132 75 101 132 75 101 132 75 101 132 75 101 132 75 101 132 75 101 132 75 101 132 75 101 132 75 101 132 75 101 132 75 101 132 75 101 132 75 101 132 75 101 132 75 101 132 75 101 132 75 101 132 75 101 132 75 101 132 75 101 132 75 101 132 75 101 132 75 101 132 242 237 227 242 237 227 242 237 227 242 237 227 242 237 227 242 237 227 242 237 227 242 237 227 242 237 227 242 237 227
242 237 227 242 237 227 242 237 227 242 237 227 242 237 227 242 237 227 242 237 227 242 237 227 242 237 227 242 237 227 242 237 227 75 101 132 75 101 132 75 101 132 75 101 132 75 101 132 75 101 132 75 101 132 75 101 132 75 101 132 75 101 132 75 101 132 75 101 132 75 101 132 75 101 132 75 101 132 75 101 132 75 101 132 75 101 132 75 101 132 75 101 132 75 101 132 75 101 132 75 101 132 75 101 132 75 101 132 75 101 132 75 101 132 75 101 132 75 101 132 75 101 132 75 101 132 75 101 132 75 101 132 75 101 132 75 101 132 75 101 132 75 101 132 75 101 132 75 101 132 75 101 132 75 101 132 75 101 132 75 101 132 242 237 227 242 237 227 242 237 227 242 237 227 242 237 227 242 237 227 242 237 227 242 237 227 242 237 227 242 237 227
242 237 227 242 237 227 242 237 227 242 237 227 242 237 227 242 237 227 242 237 227 242 237 227 242 237 227 242 237 227 242 237 227 75 101 132 75 101 132 75 101 132 75 101 132 75 101 132 75 101 132 75 101 132 75 101 132 75 101 132 75 101 132 75 101 132 75 101 132 75 101 132 75 101 132 75 101 132 75 101 132 75 101 132 75 101 132 75 101 132 75 101 132 75 101 132 75 101 132 75 101 132 75 101 132 75 101 132 75 101 132 75 101 132 75 101 132 75 101 132 75 101 132 75 101 132 75 101 132 75 101 132 75 101 132 75 101 132 75 101 132 75 101 132 75 101 132 75 101 132 75 101 132 75 101 132 75 101 132 75 101 132 242 237 227 242 237 227 242 237 227 242 237 227 242 237 227 242 237 227 242 237 227 242 237 227 242 237 227 242 237 227
242 237 227 242 237 227 242 237 227 242 237 227 242 237 227 242 237 227 242 237 227 242 237 227 242 237 227 242 237 227 242 237 227 75 101 132 75 101 132 75 101 132 75 101 132 75 101 132 75 101 132 75 101 132 75 101 132 75 101 132 75 101 132 75 101 132 75 101 132 75 101 132 75 101 132 75 101 132 75 101 132 75 101 132 75 101 132 75 101 132 75 101 132 75 101 132 75 101 132 75 101 132 75 101 132 75 101 132 75 101 132 75 101 132 75 101 132 75 101 132 75 101 132 75 101 132 75 101 132 75 101 132 75 101 132 75 101 132 75 101 132 75 101 132 75 101 132 75 101 132 75 101 132 75 101 132 75 101 132 75 101 132 242 237 227 242 237 227 242 237 227 242 237 227 242 237 227 242 237 227 242 237 227 242 237 227 242 237 227 242 237 227
242 237 227 242 237 227 242 237 227 242 237 227 242 237 227 242 237 227 242 237 227 242 237 227 242 237 227 242 237 227 242 237 227 75 101 132 75 101 132 75 101 132 75 101 132 75 101 132 75 101 132 75 101 132 75 101 132 75 101 132 75 101 132 75 101 132 75 101 132 75 101 132 75 101 132 75 101 132 75 101 132 75 101 132 75 101 132 75 101 132 75 101 132 75 101 132 75 101 132 75 101 132 75 101 132 75 101 132 75 101 132 75 101 132 75 101 132 75 101 132 75 101 132 75 101 132 75 101 132 75 101 132 75 101 132 75 101 132 75 101 132 75 101 132 75 101 132 75 101 132 75 101 132 75 101 132 75 101 132 75 101 132 242 237 227 242 237 227 242 237 227 242 237 227 242 237 227 242 237 227 242 237 227 242 237 227 242 237 227 242 237 227
242 237 227 242 237 227 242 237 227 242 237 227 242 237 227 242 237 227 242 237 227 242 237 227 242 237 227 242 237 227 242 237 227 75 101 132 75 101 132 75 101 132 75 101 132 75 101 132 75 101 132 75 101 132 75 101 132 75 101 132 75 101 132 75 101 132 75 101 132 75 101 132 75 101 132 75 101 132 75 101 132 75 101 132 75 101 132 75 101 132 75 101 132 75 101 132 75 101 132 75 101 132 75 101 132 75 101 132 75 101 132 75 101 132 75 101 132 75 101 132 75 101 132 75 101 132 75 101 132 75 101 132 75 101 132 75 101 132 75 101 132 75 101 132 75 101 132 75 101 132 75 101 132 75 101 132 75 101 132 75 101 132 242 237 227 242 237 227 242 237 227 242 237 227 242 237 227 242 237 227 242 237 227 242 237 227 242 237 227 242 237 227
242 237 227 242 237 227 242 237 227 242 237 227 242 237 227 242 237 227 242 237 227 242 237 227 242 237 227 242 237 227 242 237 227 75 101 132 75 101 132 75 101 132 75 101 132 75 101 132 75 101 132 75 101 132 75 101 132 75 101 132 75 101 132 75 101 132 75 101 132 75 101 132 75 101 132 75 101 132 75 101 132 75 101 132 75 101 132 75 101 132 75 101 132 75 101 132 75 101 132 75 101 132 75 101 132 75 101 132 75 101 132 75 101 132 75 101 132 75 101 132 75 101 132 75 101 132 75 101 132 75 101 132 75 101 132 75 101 132 75 101 132 75 101 132 75 101 132 75 101 132 75 101 132 75 101 132 75 101 132 75 101 132 242 237 227 242 237 227 242 237 227 242 237 227 242 237 227 242 237 227 242 237 227 242 237 227 242 237 227 242 237 227
242 237 227 242 237 227 242 237 227 242 237 227 242 237 227 242 237 227 242 237 227 242 237 227 242 237 227 242 237 227 242 237 227 75 101 132 75 101 132 75 101 132 75 101 132 75 101 132 75 101 132 75 101 132 75 101 132 75 101 132 75 101 132 75 101 132 75 101 132 75 101 132 75 101 132 75 101 132 75 101 132 75 101 132 75 101 132 75 101 132 75 101 132 75 101 132 75 101 132 75 101 132 75 101 132 75 101 132 75 101 132 75 101 132 75 101 132 75 101 132 75 101 132 75 101 132 75 101 132 75 101 132 75 101 132 75 101 132 75 101 132 75 101 132 75 101 132 75 101 132 75 101 132 75 101 132 75 101 132 75 101 132 242 237 227 242 237 227 242 237 227 242 237 227 242 237 227 242 237 227 242 237 227 242 237 227 242 237 227 242 237 227
242 237 227 242 237 227 242 237 227 242 237 227 242 237 227 242 237 227 242 237 227 242 237 227 242 237 227 242 237 227 242 237 227 75 101 132 75 101 132 75 101 132 75 101 132 75 101 132 75 101 132 75 101 132 75 101 132 75 101 132 75 101 132 75 101 132 75 101 132 75 101 132 75 101 132 75 101 132 75 101 132 75 101 132 75 101 132 75 101 132 75 101 132 75 101 132 75 101 132 75 101 132 75 101 132 75 101 132 75 101 132 75 101 132 75 101 132 75 101 132 75 101 132 75 101 132 75 101 132 75 101 132 75 101 132 75 101 132 75 101 132 75 101 132 75 101 132 75 101 132 75 101 132 75 101 132 75 101 132 75 101 132 242 237 227 242 237 227 242 237 227 242 237 227 242 237 227 242 237 227 242 237 227 242 237 227 242 237 227 242 237 227
242 237 227 242 237 227 242 237 227 242 237 227 242 237 227 242 237 227 242 237 227 242 237 227 242 237 227 242 237 227 242 237 227 75 101 132 75 101 132 75 101 132 75 101 132 75 101 132 75 101 132 75 101 132 75 101 132 75 101 132 75 101 132 75 101 132 75 101 132 75 101 132 75 101 132 75 101 132 75 101 132 75 101 132 75 101 132 75 101 132 75 101 132 75 101 132 75 101 132 75 101 132 75 101 132 75 101 132 75 101 132 75 101 132 75 101 132 75 101 132 75 101 132 75 101 132 75 101 132 75 101 132 75 101 132 75 101 132 75 101 132 75 101 132 75 101 132 75 101 132 75 101 132 75 101 132 75 101 132 75 101 132 242 237 227 242 237 227 242 237 227 242 237 227 242 237 227 242 237 227 242 237 227 242 237 227 242 237 227 242 237 227
242 237 227 242 237 227 242 237 227 242 237 227 242 237 227 242 237 227 242 237 227 242 237 227 242 237 227 242 237 227 242 237 227 75 101 132 75 101 132 75 101 132 75 101 132 75 101 132 75 101 132 75 101 132 75 101 132 75 101 132 75 101 132 75 101 132 75 101 132 75 101 132 75 101 132 75 101 132 75 101 132 75 101 132 75 101 132 75 101 132 75 101 132 75 101 132 75 101 132 75 101 132 75 101 132 75 101 132 75 101 132 75 101 132 75 101 132 75 101 132 75 101 132 75 101 132 75 101 132 75 101 132 75 101 132 75 101 132 75 101 132 75 101 132 75 101 132 75 101 132 75 101 132 75 101 132 75 101 132 75 101 132 242 237 227 242 237 227 242 237 227 242 237 227 242 237 227 242 237 227 242 237 227 242 237 227 242 237 227 242 237 227
242 237 227 242 237 227 242 237 227 242 237 227 242 237 227 242 237 227 242 237 227 242 237 227 242 237 227 242 237 227 242 237 227 75 101 132 75 101 132 75 101 132 75 101 132 75 101 132 75 101 132 75 101 132 75 101 132 75 101 132 75 101 132 75 101 132 75 101 132 75 101 132 75 101 132 75 101 132 75 101 132 75 101 132 75 101 132 75 101 132 75 101 132 75 101 132 75 101 132 75 101 132 75 101 132 75 101 132 75 101 132 75 101 132 75 101 132 75 101 132 75 101 132 75 101 132 75 101 132 75 101 132 75 101 132 75 101 132 75 101 132 75 101 132 75 101 132 75 101 132 75 101 132 75 101 132 75 101 132 75 101 132 242 237 227 242 237 227 242 237 227 242 237 227 242 237 227 242 237 227 242 237 227 242 237 227 242 237 227 242 237 227
242 237 227 242 237 227 242 237 227 242 237 227 242 237 227 242 237 227 242 237 227 242 237 227 242 237 227 242 237 227 242 237 227 75 101 132 75 101 132 75 101 132 75 101 132 75 101 132 75 101 132 75 101 132 75 101 132 127 143 166 127 143 166 127 143 166 127 143 166 127 143 166 127 143 166 127 143 166 127 143 166 127 143 166 127 143 166 127 143 166 127 143 166 127 143 166 127 143 166 127 143 166 127 143 166 127 143 166 127 143 166 127 143 166 127 143 166 127 143 166 127 143 166 127 143 166 127 143 166 127 143 166 127 143 166 127 143 166 75 101 132 75 101 132 75 101 132 75 101 132 75 101 132 75 101 132 75 101 132 75 101 132 242 237 227 242 237 227 242 237 227 242 237 227 242 237 227 242 237 227 242 237 227 242 237 227 242 237 227 242 237 227
242 237 227 242 237 227 242 237 227 242 237 227 242 237 227 242 237 227 242 237 227 242 237 227 242 237 227 242 237 227 242 237 227 75 101 132 75 101 132 75 101 132 75 101 132 75 101 132 75 101 132 75 101 132 75 101 132 127 143 166 127 143 166 127 143 166 127 143 166 127 143 166 127 143 166 127 143 166 127 143 166 127 143 166 127 143 166 127 143 166 127 143 166 127 143 166 127 143 166 127 143 166 127 143 166 127 143 166 127 143 166 127 143 166 127 143 166 127 143 166 127 143 166 127 143 166 127 143 166 127 143 166 127 143 166 127 143 166 75 101 132 75 101 132 75 101 132 75 101 132 75 101 132 75 101 132 75 101 132 75 101 132 242 237 227 242 237 227 242 237 227 242 237 227 242 237 227 242 237 227 242 237 227 242 237 227 242 237 227 242 237 227
242 237 227 242 237 227 242 237 227 242 237 227 242 237 227 242 237 227 242 237 227 242 237 227 242 237 227 242 237 227 242 237 227 75 101 132 75 101 132 75 101 132 75 101 132 75 101 132 75 101 132 75 101 132 75 101 132 127 143 166 127 143 166 127 143 166 127 143 166 127 143 166 127 143 166 127 143 166 127 143 166 127 143 166 127 143 166 127 143 166 127 143 166 127 143 166 127 143 166 127 143 166 127 143 166 127 143 166 127 143 166 127 143 166 127 143 166 127 143 166 127 143 166 127 143 166 127 143 166 127 143 166 127 143 166 127 143 166 75 101 132 75 101 132 75 101 132 75 101 132 75 101 132 75 101 132 75 101 132 75 101 132 242 237 227 242 237 227 242 237 227 242 237 227 242 237 227 242 237 227 242 237 227 242 237 227 242 237 227 242 237 227
242 237 227 242 237 227 242 237 227 242 237 227 242 237 227 242 237 227 242 237 227 242 237 227 242 237 227 242 237 227 242 237 227 75 101 132 75 101 132 75 101 132 75 101 132 75 101 132 75 101 132 75 101 132 75 101 132 127 143 166 127 143 166 127 143 166 127 143 166 127 143 166 127 143 166 127 143 166 127 143 166 127 143 166 127 143 166 127 143 166 127 143 166 127 143 166 127 143 166 127 143 166 127 143 166 127 143 166 127 143 166 127 143 166 127 143 166 127 143 166 127 143 166 127 143 166 127 143 166 127 143 166 127 143 166 127 143 166 75 101 132 75 101 132 75 101 132 75 101 132 75 101 132 75 101 132 75 101 132 75 101 132 242 237 227 242 237 227 242 237 227 242 237 227 242 237 227 242 237 227 242 237 227 242 237 227 242 237 227 242 237 227
242 237 227 242 237 227 242 237 227 242 237 227 242 237 227 242 237 227 242 237 227 242 237 227 242 237 227 242 237 227 242 237 227 75 101 132 75 101 132 75 101 132 75 101 132 75 101 132 75 101 132 75 101 132 75 101 132 127 143 166 127 143 166 127 143 166 127 143 166 127 143 166 127 143 166 127 143 166 127 143 166 127 143 166 127 143 166 127 143 166 127 143 166 127 143 166 127 143 166 127 143 166 127 143 166 127 143 166 127 143 166 127 143 166 127 143 166 127 143 166 127 143 166 127 143 166 127 143 166 127 143 166 127 143 166 127 143 166 75 101 132 75 101 132 75 101 132 75 101 132 75 101 132 75 101 132 75 101 132 75 101 132 242 237 227 242 237 227 242 237 227 242 237 227 242 237 227 242 237 227 242 237 227 242 237 227 242 237 227 242 237 227
242 237 227 242 237 227 242 237 227 242 237 227 242 237 227 242 237 227 242 237 227 242 237 227 242 237 227 242 237 227 242 237 227 75 101 132 75 101 132 75 101 132 75 101 132 75 101 132 75 101 132 75 101 132 75 101 132 127 143 166 127 143 166 127 143 166 127 143 166 127 143 166 127 143 166 127 143 166 127 143 166 127 143 166 127 143 166 127 143 166 127 143 166 127 143 166 127 143 166 127 143 166 127 143 166 127 143 166 127 143 166 127 143 166 127 143 166 127 143 166 127 143 166 127 143 166 127 143 166 127 143 166 127 143 166 127 143 166 75 101 132 75 101 132 75 101 132 75 101 132 75 101 132 75 101 132 75 101 132 75 101 132 242 237 227 242 237 227 242 237 227 242 237 227 242 237 227 242 237 227 242 237 227 242 237 227 242 237 227 242 237 227
242 237 227 242 237 227 242 237 227 242 237 227 242 237 227 242 237 227 242 237 227 242 237 227 242 237 227 242 237 227 242 237 227 242 237 227 242 237 227 242 237 227 242 237 227 242 237 227 242 237 227 242 237 227 242 237 227 127 143 166 127 143 166 127 143 166 127 143 166 127 143 166 127 143 166 127 143 166 127 143 166 127 143 166 127 143 166 127 143 166 127 143 166 127 143 166 127 143 166 127 143 166 127 143 166 127 143 166 127 143 166 127 143 166 127 143 166 127 143 166 127 143 166 127 143 166 127 143 166 127 143 166 127 143 166 127 143 166 242 237 227 242 237 227 242 237 227 242 237 227 242 237 227 242 237 227 242 237 227 242 237 227 242 237 227 242 237 227 242 237 227 242 237 227 242 237 227 242 237 227 242 237 227 242 237 227 242 237 227 242 237 227
242 237 227 242 237 227 242 237 227 242 237 227 242 237 227 242 237 227 242 237 227 242 237 227 242 237 227 242 237 227 242 237 227 242 237 227 242 237 227 242 237 227 242 237 227 242 237 227 242 237 227 242 237 227 242 237 227 127 143 166 127 143 166 127 143 166 127 143 166 127 143 166 127 143 166 127 143 166 127 143 166 127 143 166 127 143 166 127 143 166 127 143 166 127 143 166 127 143 166 127 143 166 127 143 166 127 143 166 127 143 166 127 143 166 127 143 166 127 143 166 127 143 166 127 143 166 127 143 166 127 143 166 127 143 166 127 143 166 242 237 227 242 237 227 242 237 227 242 237 227 242 237 227 242 237 227 242 237 227 242 237 227 242 237 227 242 237 227 242 237 227 242 237 227 242 237 227 242 237 227 242 237 227 242 237 227 242 237 227 242 237 227
242 237 227 242 237 227 242 237 227 242 237 227 242 237 227 242 237 227 242 237 227 242 237 227 242 237 227 242 237 227 242 237 227 242 237 227 242 237 227 242 237 227 242 237 227 242 237 227 242 237 227 242 237 227 242 237 227 242 237 227 242 237 227 242 237 227 242 237 227 47 54 64 47 54 64 47 54 64 47 54 64 47 54 64 47 54 64 47 54 64 242 237 227 242 237 227 242 237 227 242 237 227 242 237 227 47 54 64 47 54 64 47 54 64 47 54 64 47 54 64 47 54 64 47 54 64 242 237 227 242 237 227 242 237 227 242 237 227 242 237 227 242 237 227 242 237 227 242 237 227 242 237 227 242 237 227 242 237 227 242 237 227 242 237 227 242 237 227 242 237 227 242 237 227 242 237 227 242 237 227 242 237 227 242 237 227 242 237 227 242 237 227
242 237 227 242 237 227 242 237 227 242 237 227 242 237 227 242 237 227 242 237 227 242 237 227 242 237 227 242 237 227 242 237 227 242 237 227 242 237 227 242 237 227 242 237 227 242 237 227 242 237 227 242 237 227 242 237 227 242 237 227 242 237 227 242 237 227 242 237 227 47 54 64 47 54 64 47 54 64 47 54 64 47 54 64 47 54 64 47 54 64 242 237 227 242 237 227 242 237 227 242 237 227 242 237 227 47 54 64 47 54 64 47 54 64 47 54 64 47 54 64 47 54 64 47 54 64 242 237 227 242 237 227 242 237 227 242 237 227 242 237 227 242 237 227 242 237 227 242 237 227 242 237 227 242 237 227 242 237 227 242 237 227 242 237 227 242 237 227 242 237 227 242 237 227 242 237 227 242 237 227 242 237 227 242 237 227 242 237 227 242 237 227
242 237 227 242 237 227 242 237 227 242 237 227 242 237 227 242 237 227 242 237 227 242 237 227 242 237 227 242 237 227 242 237 227 242 237 227 242 237 227 242 237 227 242 237 227 242 237 227 242 237 227 242 237 227 242 237 227 242 237 227 242 237 227 242 237 227 242 237 227 47 54 64 47 54 64 47 54 64 47 54 64 47 54 64 47 54 64 47 54 64 242 237 227 242 237 227 242 237 227 242 237 227 242 237 227 47 54 64 47 54 64 47 54 64 47 54 64 47 54 64 47 54 64 47 54 64 242 237 227 242 237 227 242 237 227 242 237 227 242 237 227 242 237 227 242 237 227 242 237 227 242 237 227 242 237 227 242 237 227 242 237 227 242 237 227 242 237 227 242 237 227 242 237 227 242 237 227 242 237 227 242 237 227 242 237 227 242 237 227 242 237 227
242 237 227 242 237 227 242 237 227 242 237 227 242 237 227 242 237 227 242 237 227 242 237 227 242 237 227 242 237 227 242 237 227 242 237 227 242 237 227 242 237 227 242 237 227 242 237 227 242 237 227 242 237 227 242 237 227 242 237 227 242 237 227 242 237 227 242 237 227 47 54 64 47 54 64 47 54 64 47 54 64 47 54 64 47 54 64 47 54 64 242 237 227 242 237 227 242 237 227 242 237 227 242 237 227 47 54 64 47 54 64 47 54 64 47 54 64 47 54 64 47 54 64 47 54 64 242 237 227 242 237 227 242 237 227 242 237 227 242 237 227 242 237 227 242 237 227 242 237 227 242 237 227 242 237 227 242 237 227 242 237 227 242 237 227 242 237 227 242 237 227 242 237 227 242 237 227 242 237 227 242 237 227 242 237 227 242 237 227 242 237 227
242 237 227 242 237 227 242 237 227 242 237 227 242 237 227 242 237 227 242 237 227 242 237 227 242 237 227 242 237 227 242 237 227 242 237 227 242 237 227 242 237 227 242 237 227 242 237 227 242 237 227 242 237 227 242 237 227 242 237 227 242 237 227 242 237 227 242 237 227 47 54 64 47 54 64 47 54 64 47 54 64 47 54 64 47 54 64 47 54 64 242 237 227 242 237 227 242 237 227 242 237 227 242 237 227 47 54 64 47 54 64 47 54 64 47 54 64 47 54 64 47 54 64 47 54 64 242 237 227 242 237 227 242 237 227 242 237 227 242 237 227 242 237 227 242 237 227 242 237 227 242 237 227 242 237 227 242 237 227 242 237 227 242 237 227 242 237 227 242 237 227 242 237 227 242 237 227 242 237 227 242 237 227 242 237 227 242 237 227 242 237 227
242 237 227 242 237 227 242 237 227 242 237 227 242 237 227 242 237 227 242 237 227 242 237 227 242 237 227 242 237 227 242 237 227 242 237 227 242 237 227 242 237 227 242 237 227 242 237 227 242 237 227 242 237 227 242 237 227 242 237 227 242 237 227 242 237 227 242 237 227 47 54 64 47 54 64 47 54 64 47 54 64 47 54 64 47 54 64 47 54 64 242 237 227 242 237 227 242 237 227 242 237 227 242 237 227 47 54 64 47 54 64 47 54 64 47 54 64 47 54 64 47 54 64 47 54 64 242 237 227 242 237 227 242 237 227 242 237 227 242 237 227 242 237 227 242 237 227 242 237 227 242 237 227 242 237 227 242 237 227 242 237 227 242 237 227 242 237 227 242 237 227 242 237 227 242 237 227 242 237 227 242 237 227 242 237 227 242 237 227 242 237 227
242 237 227 242 237 227 242 237 227 242 237 227 242 237 227 242 237 227 242 237 227 242 237 227 242 237 227 242 237 227 242 237 227 242 237 227 242 237 227 242 237 227 242 237 227 242 237 227 242 237 227 242 237 227 242 237 227 242 237 227 242 237 227 242 237 227 242 237 227 242 237 227 242 237 227 242 237 227 242 237 227 242 237 227 242 237 227 242 237 227 242 237 227 242 237 227 242 237 227 242 237 227 242 237 227 242 237 227 242 237 227 242 237 227 242 237 227 242 237 227 242 237 227 242 237 227 242 237 227 242 237 227 242 237 227 242 237 227 242 237 227 242 237 227 242 237 227 242 237 227 242 237 227 242 237 227 242 237 227 242 237 227 242 237 227 242 237 227 242 237 227 242 237 227 242 237 227 242 237 227 242 237 227 242 237 227 242 237 227 242 237 227
242 237 227 242 237 227 242 237 227 242 237 227 242 237 227 242 237 227 242 237 227 242 237 227 242 237 227 242 237 227 242 237 227 242 237 227 242 237 227 242 237 227 242 237 227 242 237 227 242 237 227 242 237 227 242 237 227 242 237 227 242 237 227 242 237 227 242 237 227 242 237 227 242 237 227 242 237 227 242 237 227 242 237 227 242 237 227 242 237 227 242 237 227 242 237 227 242 237 227 242 237 227 242 237 227 242 237 227 242 237 227 242 237 227 242 237 227 242 237 227 242 237 227 242 237 227 242 237 227 242 237 227 242 237 227 242 237 227 242 237 227 242 237 227 242 237 227 242 237 227 242 237 227 242 237 227 242 237 227 242 237 227 242 237 227 242 237 227 242 237 227 242 237 227 242 237 227 242 237 227 242 237 227 242 237 227 242 237 227 242 237 227
242 237 227 242 237 227 242 237 227 242 237 227 242 237 227 242 237 227 242 237 227 242 237 227 242 237 227 242 237 227 242 237 227 242 237 227 242 237 227 242 237 227 242 237 227 242 237 227 242 237 227 242 237 227 242 237 227 242 237 227 242 237 227 242 237 227 242 237 227 242 237 227 242 237 227 242 237 227 242 237 227 242 237 227 242 237 227 242 237 227 242 237 227 242 237 227 242 237 227 242 237 227 242 237 227 242 237 227 242 237 227 242 237 227 242 237 227 242 237 227 242 237 227 242 237 227 242 237 227 242 237 227 242 237 227 242 237 227 242 237 227 242 237 227 242 237 227 242 237 227 242 237 227 242 237 227 242 237 227 242 237 227 242 237 227 242 237 227 242 237 227 242 237 227 242 237 227 242 237 227 242 237 227 242 237 227 242 237 227 242 237 227
242 237 227 242 237 227 242 237 227 242 237 227 242 237 227 242 237 227 242 237 227 242 237 227 242 237 227 242 237 227 242 237 227 242 237 227 242 237 227 242 237 227 242 237 227 242 237 227 242 237 227 242 237 227 242 237 227 242 237 227 242 237 227 242 237 227 242 237 227 242 237 227 242 237 227 242 237 227 242 237 227 242 237 227 242 237 227 242 237 227 242 237 227 242 237 227 242 237 227 242 237 227 242 237 227 242 237 227 242 237 227 242 237 227 242 237 227 242 237 227 242 237 227 242 237 227 242 237 227 242 237 227 242 237 227 242 237 227 242 237 227 242 237 227 242 237 227 242 237 227 242 237 227 242 237 227 242 237 227 242 237 227 242 237 227 242 237 227 242 237 227 242 237 227 242 237 227 242 237 227 242 237 227 242 237 227 242 237 227 242 237 227
